<svg id="Facebook" xmlns="http://www.w3.org/2000/svg" width="32.029" height="32.029" viewBox="0 0 32.029 32.029">
  <path id="Tracé_926" data-name="Tracé 926" d="M345.615,281.329a16.015,16.015,0,1,1,16.015-16.015A16.023,16.023,0,0,1,345.615,281.329Zm0-30.813a14.8,14.8,0,1,0,14.8,14.8A14.829,14.829,0,0,0,345.615,250.516Z" transform="translate(-329.6 -249.3)" fill="#fff"/>
  <path id="Facebook-2" data-name="Facebook" d="M365.32,283.769a.813.813,0,0,1-.811.811H360.7v-5.757h1.946l.284-2.23H360.7v-1.419c0-.649.162-1.095,1.095-1.095h1.176v-2.027a13.283,13.283,0,0,0-1.743-.081,2.705,2.705,0,0,0-2.879,2.96v1.662H356.4v2.23h1.946v5.757h-7.136a.813.813,0,0,1-.811-.811V270.511a.813.813,0,0,1,.811-.811h13.258a.813.813,0,0,1,.811.811v13.258Z" transform="translate(-341.967 -261.429)" fill="#fff"/>
</svg>
