<svg id="Instagram" xmlns="http://www.w3.org/2000/svg" width="32.029" height="32.029" viewBox="0 0 32.029 32.029">
  <path id="Instagram-2" data-name="Instagram" d="M1005.9,271.4H994.584a1.765,1.765,0,0,0-1.784,1.743V284.5a1.765,1.765,0,0,0,1.784,1.743H1005.9a1.765,1.765,0,0,0,1.784-1.743V273.143A1.792,1.792,0,0,0,1005.9,271.4Zm-2.433,2.311a.45.45,0,0,1,.446-.446h1.378a.45.45,0,0,1,.446.446v1.378a.45.45,0,0,1-.446.446h-1.378a.45.45,0,0,1-.446-.446Zm-3.243,2.27a2.838,2.838,0,1,1,0,5.676,2.838,2.838,0,0,1,0-5.676Zm6.041,8.393a.45.45,0,0,1-.446.446H994.665a.45.45,0,0,1-.446-.446V277.4h1.865a2.913,2.913,0,0,0-.324,1.419,4.541,4.541,0,0,0,9.082,0,2.267,2.267,0,0,0-.365-1.419h1.865v6.974Z" transform="translate(-983.799 -262.845)" fill="#fff"/>
  <path id="Tracé_924" data-name="Tracé 924" d="M986.615,282.329a16.015,16.015,0,1,1,16.015-16.015A16.023,16.023,0,0,1,986.615,282.329Zm0-30.813a14.8,14.8,0,1,0,14.8,14.8A14.829,14.829,0,0,0,986.615,251.516Z" transform="translate(-970.6 -250.3)" fill="#fff"/>
</svg>
