<svg id="Groupe_1271" data-name="Groupe 1271" xmlns="http://www.w3.org/2000/svg" xmlns:xlink="http://www.w3.org/1999/xlink" width="134.665" height="98.897" viewBox="0 0 134.665 98.897">
  <defs>
    <clipPath id="clip-path">
      <rect id="Rectangle_489" data-name="Rectangle 489" width="134.665" height="98.897" fill="none"/>
    </clipPath>
  </defs>
  <g id="Groupe_1263" data-name="Groupe 1263">
    <g id="Groupe_1262" data-name="Groupe 1262" clip-path="url(#clip-path)">
      <path id="Tracé_1043" data-name="Tracé 1043" d="M37.107.783h9.456c5.5,0,9.941,1.374,9.941,6.546,0,2.264-1.293,4.849-3.314,5.657v.162a5.985,5.985,0,0,1,4.526,6.143c0,5.414-4.687,7.758-10.345,7.758H37.107ZM46.4,11.047c2.263,0,3.314-1.051,3.314-2.667S48.664,6.117,46.4,6.117H44.058v4.93Zm.485,10.668c2.748,0,4.041-.97,4.041-2.909s-1.293-2.668-4.041-2.668H44.058v5.577Z" transform="translate(-14.114 -0.298)" fill="#fff"/>
      <rect id="Rectangle_487" data-name="Rectangle 487" width="6.95" height="26.267" transform="translate(46.965 0.485)" fill="#fff"/>
      <path id="Tracé_1044" data-name="Tracé 1044" d="M96.487,13.82C96.487,5.011,102.548,0,109.58,0a11.848,11.848,0,0,1,8.567,3.476L114.51,7.921a6.57,6.57,0,0,0-4.687-1.94c-3.556,0-6.223,2.829-6.223,7.6,0,4.93,2.182,7.678,6.869,7.678a3.937,3.937,0,0,0,2.021-.485V17.134h-3.88V11.477h10.021V24a13.268,13.268,0,0,1-8.89,3.232c-7.355,0-13.254-4.445-13.254-13.416" transform="translate(-36.701)" fill="#fff"/>
      <path id="Tracé_1045" data-name="Tracé 1045" d="M37.107,50.749H54.241v5.82H44.058v5.011h8.729V67.4H44.058v9.618h-6.95Z" transform="translate(-14.115 -19.303)" fill="#fff"/>
      <rect id="Rectangle_488" data-name="Rectangle 488" width="6.95" height="26.267" transform="translate(47.075 31.446)" fill="#fff"/>
      <path id="Tracé_1046" data-name="Tracé 1046" d="M95.143,50.749H102.5l2.747,11.476c.727,2.788,1.213,5.5,1.94,8.325h.161c.727-2.829,1.253-5.536,1.94-8.325l2.667-11.476h7.112l-7.759,26.267H102.9Z" transform="translate(-36.19 -19.303)" fill="#fff"/>
      <path id="Tracé_1047" data-name="Tracé 1047" d="M141.7,50.749h16.972v5.82H148.653V60.69h8.567v5.82h-8.567V71.2h10.426v5.82H141.7Z" transform="translate(-53.9 -19.303)" fill="#fff"/>
    </g>
  </g>
  <path id="Tracé_1189" data-name="Tracé 1189" d="M5.124.252c2.709,0,5.019-1.386,5.019-3.885A3.27,3.27,0,0,0,7.518-6.867v-.084a3.133,3.133,0,0,0,2.2-2.94c0-2.373-1.848-3.7-4.683-3.7A6.319,6.319,0,0,0,.819-11.865L2.457-9.891a3.509,3.509,0,0,1,2.436-1.134c1.008,0,1.575.483,1.575,1.386,0,1.008-.735,1.7-3.066,1.7v2.289c2.856,0,3.486.672,3.486,1.785,0,.966-.819,1.491-2.1,1.491A4.264,4.264,0,0,1,1.932-3.7L.441-1.638A5.928,5.928,0,0,0,5.124.252ZM19.929-6.069c.945,0,1.68.462,1.68,1.827,0,1.47-.756,2.058-1.617,2.058-.84,0-1.68-.588-1.953-2.625A2.187,2.187,0,0,1,19.929-6.069ZM20.076.252A4.32,4.32,0,0,0,24.57-4.242c0-2.835-1.722-4.116-3.99-4.116a3.678,3.678,0,0,0-2.625,1.386c.126-2.982,1.239-3.99,2.667-3.99a3.05,3.05,0,0,1,2.037.945l1.722-1.932a5.539,5.539,0,0,0-3.99-1.638c-2.814,0-5.418,2.268-5.418,7.2C14.973-1.659,17.493.252,20.076.252Zm13.776,0c2.9,0,4.83-2.436,4.83-6.972s-1.932-6.867-4.83-6.867-4.83,2.31-4.83,6.867C29.022-2.184,30.954.252,33.852.252Zm0-2.5c-.987,0-1.764-.882-1.764-4.473,0-3.612.777-4.347,1.764-4.347.966,0,1.764.735,1.764,4.347C35.616-3.129,34.818-2.247,33.852-2.247Z" transform="translate(21.809 74.669)" fill="#fff"/>
  <g id="Groupe_1265" data-name="Groupe 1265">
    <g id="Groupe_1264" data-name="Groupe 1264" clip-path="url(#clip-path)">
      <path id="Tracé_1048" data-name="Tracé 1048" d="M19.3,66.657c-.143.119-1.988,1.763-2.1,1.873-1.742,1.737-3.523,3.414-5.216,5.231A49.324,49.324,0,0,0,2.241,88.325,25.474,25.474,0,0,0,0,98.962a18.472,18.472,0,0,0,2.553,9.24,20.32,20.32,0,0,0,5.323,5.945,31.168,31.168,0,0,0,9.3,4.828,58.679,58.679,0,0,0,17.512,2.862,98.315,98.315,0,0,0,21.13-1.809q4.6-.867,9.1-2.057c3.49-.89,8.416-2.527,8.653-2.62,1.917,4.845,3.621,8.9,3.621,8.9l6.566-19.643-18.23-9.233s1.664,3.927,3.686,9.037c-1.493.591-8.3,2.674-9.972,3.047-3.247.725-6.489,1.473-9.8,1.994-3.47.545-6.981.971-10.538,1.2A53.538,53.538,0,0,1,20.7,109.1a23.021,23.021,0,0,1-8.263-3.953,12.738,12.738,0,0,1-5.07-11.655,21.577,21.577,0,0,1,2.55-8.2,45.568,45.568,0,0,1,7.66-10.513c.618-.655,1.236-1.307,1.832-1.938Z" transform="translate(0 -25.354)" fill="#970610"/>
      <path id="Tracé_1049" data-name="Tracé 1049" d="M187.067,36.129c.187.695.392,1.389.556,2.083a20.378,20.378,0,0,1,.275,7.864,29.242,29.242,0,0,1-2.8,8.764,51.565,51.565,0,0,1-10.252,14.129c-2.77,2.736-5.623,5.342-8.563,7.778-4.281,3.335-12.7,9.988-21.369,13.63l-4.287-10.832a85.209,85.209,0,0,0,15.5-9c3.082-2.353,6.969-5.657,9.9-8.292a45,45,0,0,0,9.922-12.345,21.08,21.08,0,0,0,2.433-7.022,13.26,13.26,0,0,0-.35-5.918,12.408,12.408,0,0,0-3.2-5.3,18.729,18.729,0,0,0-5.681-3.883c-4.114-1.9-14.547-4.5-26.8-2.788l-.061-3.531c13.293-2.831,24.284-.652,29.207,1.1a30.476,30.476,0,0,1,9.076,4.88,20.036,20.036,0,0,1,5.5,6.572c.211.4.428.8.643,1.206l.355.9" transform="translate(-53.49 -7.648)" fill="#970610"/>
    </g>
  </g>
</svg>
