<svg xmlns="http://www.w3.org/2000/svg" xmlns:xlink="http://www.w3.org/1999/xlink" width="245.772" height="245.772" viewBox="0 0 245.772 245.772">
  <defs>
    <clipPath id="clip-path">
      <rect id="Rectangle_503" data-name="Rectangle 503" width="245.772" height="245.772" fill="#d01a00"/>
    </clipPath>
  </defs>
  <g id="restouches" transform="translate(0 0)">
    <g id="Groupe_1310" data-name="Groupe 1310" transform="translate(0 0)" clip-path="url(#clip-path)">
      <path id="Tracé_1072" data-name="Tracé 1072" d="M245.811,122.906A122.906,122.906,0,1,1,122.905,0,122.91,122.91,0,0,1,245.811,122.906" transform="translate(-0.039 -0.02)" fill="#d01a00"/>
      <path id="Tracé_1073" data-name="Tracé 1073" d="M70.375,32.292C44.883,6.76,15.647-5.361,5.1,5.19S6.666,44.977,32.2,70.469a145.987,145.987,0,0,0,10.913,9.947l37.21-37.21c-3.061-3.665-6.363-7.329-9.947-10.913" transform="translate(50.558 54.23)" fill="#1d1d1d"/>
      <path id="Tracé_1074" data-name="Tracé 1074" d="M2.326,39.63c22.431,18.524,45.3,26.216,54.365,17.155S58.061,24.851,39.536,2.42Z" transform="translate(91.344 95.015)" fill="#fff"/>
      <path id="Tracé_1075" data-name="Tracé 1075" d="M59,38.4c-8.014-8.094-29.075-23.88-34.472-27.5C15.589,4.934,3.669-.1,1.776,2.115.085,4.089,17.643,14.4,23,18.868c7.893,6.564,16.39,12.766,24,19.813,2.94,2.738,5.477,5.195,7.732,7.49l5.96-6C60.169,39.567,59.605,39,59,38.4" transform="translate(65.274 62.137)" fill="#818181"/>
      <path id="Tracé_1076" data-name="Tracé 1076" d="M26.015,32.3c-.4-3.141-4.188-16.028-17.075-29.76l-5.96,6c10.269,10.551,14.216,17.4,21.948,29.2,1.289,1.973,1.329-3.624,1.087-5.437" transform="translate(117.027 99.767)" fill="#f7f7f7"/>
      <path id="Tracé_1077" data-name="Tracé 1077" d="M47.377,10.77C63.646,27.039,49.995,43.751,68.4,57.645c11.437,8.618-33.465,13.934-57.668-10.269A25.9,25.9,0,0,1,47.377,10.77" transform="translate(123.693 125.205)" fill="#d5d5d5"/>
      <path id="Tracé_1078" data-name="Tracé 1078" d="M32.32,41.9c4.712,4.712-20.256-.564-27.142-13.934-3.826-7.49-1.208-16.35,3.5-21.062a12.008,12.008,0,0,1,17.075,0c9.987,9.987-9.786,18.645,6.564,35" transform="translate(131.098 131.282)" fill="#f7f7f7"/>
    </g>
  </g>
</svg>
