<svg xmlns="http://www.w3.org/2000/svg" xmlns:xlink="http://www.w3.org/1999/xlink" width="245.771" height="245.771" viewBox="0 0 245.771 245.771">
  <defs>
    <clipPath id="clip-path">
      <rect id="Rectangle_504" data-name="Rectangle 504" width="245.771" height="245.771" fill="none"/>
    </clipPath>
    <clipPath id="clip-path-2">
      <rect id="Rectangle_507" data-name="Rectangle 507" width="185.07" height="118.792" fill="none"/>
    </clipPath>
  </defs>
  <g id="Visite_Virtuelle_3D" data-name="Visite Virtuelle 3D" transform="translate(-769.445 -2534.327)">
    <g id="Groupe_1322" data-name="Groupe 1322" transform="translate(769.445 2534.327)">
      <g id="Groupe_1313" data-name="Groupe 1313" transform="translate(0 0)">
        <g id="Groupe_1312" data-name="Groupe 1312" transform="translate(0 0)" clip-path="url(#clip-path)">
          <path id="Tracé_1079" data-name="Tracé 1079" d="M245.811,122.906A122.906,122.906,0,1,1,122.9,0,122.91,122.91,0,0,1,245.811,122.906" transform="translate(-0.039 -0.02)" fill="#d01a00"/>
          <path id="Tracé_1080" data-name="Tracé 1080" d="M14.951,32.693l.805.04V3.859a117.694,117.694,0,0,0-13.088.926c2.9,14.7,7.571,24.726,12.283,27.908" transform="translate(104.774 151.526)" fill="#cbcbcb"/>
          <path id="Tracé_1081" data-name="Tracé 1081" d="M4.768,29.568A121.258,121.258,0,0,1,18.7,28.521V3.11H2.593A177.434,177.434,0,0,0,4.768,29.568" transform="translate(101.829 122.112)" fill="#cbcbcb"/>
          <path id="Tracé_1082" data-name="Tracé 1082" d="M2.242,7.283C7.6,18.156,15.29,26.29,24.109,29.955,19.961,24.035,16.82,14.733,14.686,3.9A70.265,70.265,0,0,0,2.242,7.283" transform="translate(88.045 153.136)" fill="#cbcbcb"/>
          <path id="Tracé_1083" data-name="Tracé 1083" d="M2.667,29.436A128.593,128.593,0,0,0,15.8,30.4V1.528H14.95C10.238,4.75,5.566,14.777,2.667,29.436" transform="translate(104.735 59.986)" fill="#cbcbcb"/>
          <path id="Tracé_1084" data-name="Tracé 1084" d="M7.594,4.033C4.815,5.563,2.882,7.174,2,8.825A62.718,62.718,0,0,0,19.192,20.5a55.193,55.193,0,0,1-7.208-8.86A66.9,66.9,0,0,1,7.594,4.033" transform="translate(78.384 158.359)" fill="#cbcbcb"/>
          <path id="Tracé_1085" data-name="Tracé 1085" d="M2.593,28.794H18.7V3.383A121.943,121.943,0,0,1,4.768,2.336,182.971,182.971,0,0,0,2.593,28.794" transform="translate(101.829 91.717)" fill="#cbcbcb"/>
          <path id="Tracé_1086" data-name="Tracé 1086" d="M21.891,5.931A73.537,73.537,0,0,1,8.32,2.226,86.6,86.6,0,0,0,2.038,33.114h17.6A191.352,191.352,0,0,1,21.891,5.931" transform="translate(80.033 87.397)" fill="#cbcbcb"/>
          <path id="Tracé_1087" data-name="Tracé 1087" d="M8.281,34a75.335,75.335,0,0,1,13.571-3.7A190.857,190.857,0,0,1,19.6,3.11H2.039A87.475,87.475,0,0,0,8.281,34" transform="translate(80.073 122.112)" fill="#cbcbcb"/>
          <path id="Tracé_1088" data-name="Tracé 1088" d="M17.354,3.111H1.528a60.994,60.994,0,0,0,15.5,38.418,20.258,20.258,0,0,1,7.007-5.6A91.166,91.166,0,0,1,17.354,3.111" transform="translate(60.005 122.151)" fill="#cbcbcb"/>
          <path id="Tracé_1089" data-name="Tracé 1089" d="M14.687,27.611c2.094-10.833,5.235-20.1,9.383-26.055C15.25,5.261,7.6,13.355,2.243,24.269a69.527,69.527,0,0,0,12.444,3.342" transform="translate(88.084 61.086)" fill="#cbcbcb"/>
          <path id="Tracé_1090" data-name="Tracé 1090" d="M10.7,40.457H26.527a61.084,61.084,0,0,0-15.5-38.418,20.258,20.258,0,0,1-7.007,5.6A91.165,91.165,0,0,1,10.7,40.457" transform="translate(157.711 80.053)" fill="#cbcbcb"/>
          <path id="Tracé_1091" data-name="Tracé 1091" d="M24.039,7.637a20.258,20.258,0,0,1-7.007-5.6,61.176,61.176,0,0,0-15.5,38.418H17.354A91.166,91.166,0,0,1,24.039,7.637" transform="translate(60.005 80.053)" fill="#cbcbcb"/>
          <path id="Tracé_1092" data-name="Tracé 1092" d="M7.594,18.133a63.581,63.581,0,0,1,4.389-7.611,53.475,53.475,0,0,1,7.208-8.86A62.717,62.717,0,0,0,2,13.34c.886,1.651,2.819,3.262,5.6,4.792" transform="translate(78.384 65.248)" fill="#cbcbcb"/>
          <path id="Tracé_1093" data-name="Tracé 1093" d="M4.016,35.932a20.258,20.258,0,0,1,7.007,5.6,61.176,61.176,0,0,0,15.5-38.418H10.7A91.165,91.165,0,0,1,4.016,35.932" transform="translate(157.711 122.151)" fill="#cbcbcb"/>
          <path id="Tracé_1094" data-name="Tracé 1094" d="M3.111,3.859V32.733l.805-.04C8.668,29.511,13.3,19.484,16.2,4.785A117.694,117.694,0,0,0,3.111,3.859" transform="translate(122.171 151.526)" fill="#cbcbcb"/>
          <path id="Tracé_1095" data-name="Tracé 1095" d="M19.219,3.111H3.111V28.522a121.943,121.943,0,0,1,13.934,1.047A177.433,177.433,0,0,0,19.219,3.111" transform="translate(122.171 122.151)" fill="#cbcbcb"/>
          <path id="Tracé_1096" data-name="Tracé 1096" d="M12.7,3.9C10.608,14.733,7.467,24,3.319,29.955c8.819-3.7,16.471-11.8,21.867-22.672A70.778,70.778,0,0,0,12.7,3.9" transform="translate(130.339 153.136)" fill="#cbcbcb"/>
          <path id="Tracé_1097" data-name="Tracé 1097" d="M15.317,4.033a66.9,66.9,0,0,1-4.389,7.611A55.365,55.365,0,0,1,3.679,20.5,62.318,62.318,0,0,0,20.915,8.825c-.926-1.651-2.819-3.262-5.6-4.792" transform="translate(144.477 158.359)" fill="#cbcbcb"/>
          <path id="Tracé_1098" data-name="Tracé 1098" d="M3.916,1.568l-.805-.04V30.4A117.694,117.694,0,0,0,16.2,29.476C13.3,14.777,8.668,4.75,3.916,1.568" transform="translate(122.171 59.986)" fill="#cbcbcb"/>
          <path id="Tracé_1099" data-name="Tracé 1099" d="M3.572,30.294A73.537,73.537,0,0,1,17.143,34,86.6,86.6,0,0,0,23.425,3.111H5.827A185.622,185.622,0,0,1,3.572,30.294" transform="translate(140.275 122.151)" fill="#cbcbcb"/>
          <path id="Tracé_1100" data-name="Tracé 1100" d="M15.317,18.133c2.779-1.53,4.671-3.141,5.6-4.792A62.318,62.318,0,0,0,3.679,1.662a53.638,53.638,0,0,1,7.249,8.86,63.581,63.581,0,0,1,4.389,7.611" transform="translate(144.477 65.248)" fill="#cbcbcb"/>
          <path id="Tracé_1101" data-name="Tracé 1101" d="M17.045,2.336A121.943,121.943,0,0,1,3.111,3.383V28.794H19.219A177.433,177.433,0,0,0,17.045,2.336" transform="translate(122.171 91.717)" fill="#cbcbcb"/>
          <path id="Tracé_1102" data-name="Tracé 1102" d="M25.186,24.269C19.79,13.4,12.138,5.261,3.319,1.556c4.148,5.96,7.289,15.263,9.383,26.055a67.645,67.645,0,0,0,12.484-3.342" transform="translate(130.339 61.086)" fill="#cbcbcb"/>
          <path id="Tracé_1103" data-name="Tracé 1103" d="M17.144,2.226a75.336,75.336,0,0,1-13.571,3.7A190.855,190.855,0,0,1,5.828,33.114H23.386A87.475,87.475,0,0,0,17.144,2.226" transform="translate(140.314 87.397)" fill="#cbcbcb"/>
          <path id="Tracé_1104" data-name="Tracé 1104" d="M69.536,1.359a68.178,68.178,0,1,0,68.178,68.178A68.257,68.257,0,0,0,69.536,1.359M58.824,9.292c-4.148,5.96-7.329,15.263-9.423,26.055A67.158,67.158,0,0,1,36.957,32C42.313,21.092,49.965,13,58.824,9.292M46.34,71.913A180.674,180.674,0,0,0,48.6,99.1a71.76,71.76,0,0,0-13.611,3.7,87.475,87.475,0,0,1-6.242-30.888Zm-17.6-4.752a87.475,87.475,0,0,1,6.242-30.888,74.887,74.887,0,0,0,13.611,3.7A180.234,180.234,0,0,0,46.34,67.161Zm15.5-53.6a55.193,55.193,0,0,0-7.208,8.86,63.581,63.581,0,0,0-4.389,7.611c-2.779-1.53-4.712-3.141-5.6-4.792a62.117,62.117,0,0,1,17.2-11.678M23.708,28.743a20.258,20.258,0,0,0,7.007,5.6A90.32,90.32,0,0,0,24.03,67.161H8.2a61.176,61.176,0,0,1,15.5-38.418m0,81.588A61.176,61.176,0,0,1,8.2,71.913H24.03a90.32,90.32,0,0,0,6.685,32.821,20.258,20.258,0,0,0-7.007,5.6m3.342,3.5c.886-1.651,2.819-3.3,5.6-4.792a66.9,66.9,0,0,0,4.389,7.611,57.027,57.027,0,0,0,7.208,8.86,62.118,62.118,0,0,1-17.2-11.678m9.907-6.765A70.265,70.265,0,0,1,49.4,103.687c2.094,10.833,5.275,20.135,9.423,26.055-8.86-3.665-16.511-11.8-21.867-22.672M67.2,130.91l-.846-.04c-4.712-3.181-9.383-13.209-12.283-27.908a117.749,117.749,0,0,1,13.128-.926Zm0-33.626a122.651,122.651,0,0,0-13.974,1.047,182.387,182.387,0,0,1-2.175-26.418H67.2Zm0-30.122H51.052A182.973,182.973,0,0,1,53.227,40.7,132.569,132.569,0,0,0,67.2,41.791Zm0-30.122a117.745,117.745,0,0,1-13.128-.926c2.9-14.7,7.571-24.726,12.283-27.908l.846-.04Zm48.2-8.3a61.176,61.176,0,0,1,15.5,38.418H115.082A91.165,91.165,0,0,0,108.4,34.341a20.645,20.645,0,0,0,7.007-5.6M92.772,67.161a191.352,191.352,0,0,0-2.255-27.183,74.426,74.426,0,0,0,13.571-3.7,85.731,85.731,0,0,1,6.242,30.888Zm17.558,4.752a85.731,85.731,0,0,1-6.242,30.888,71.321,71.321,0,0,0-13.571-3.7,191.849,191.849,0,0,0,2.255-27.183Zm1.691-46.674c-.886,1.651-2.779,3.262-5.557,4.792a69.558,69.558,0,0,0-4.389-7.611,55.365,55.365,0,0,0-7.249-8.86,61.529,61.529,0,0,1,17.2,11.678M102.155,32a67.644,67.644,0,0,1-12.484,3.342c-2.094-10.793-5.235-20.1-9.383-26.055C89.108,13,96.759,21.092,102.155,32M71.912,8.165l.805.04C77.469,11.386,82.1,21.414,85.04,36.113a119.159,119.159,0,0,1-13.128.926Zm0,33.626A130.971,130.971,0,0,0,85.846,40.7,177.435,177.435,0,0,1,88.02,67.161H71.912Zm0,30.122H88.02a176.868,176.868,0,0,1-2.175,26.418,121.256,121.256,0,0,0-13.934-1.047Zm.805,58.956-.805.04V102.035a119.163,119.163,0,0,1,13.128.926c-2.94,14.7-7.571,24.726-12.323,27.908m7.571-1.128c4.148-5.92,7.289-15.222,9.383-26.055a70.779,70.779,0,0,1,12.484,3.383c-5.4,10.873-13.048,19.008-21.867,22.672m14.538-4.228a57.208,57.208,0,0,0,7.249-8.86,73.552,73.552,0,0,0,4.389-7.611c2.779,1.49,4.671,3.141,5.557,4.792a61.53,61.53,0,0,1-17.2,11.678M115.4,110.331a20.645,20.645,0,0,0-7.007-5.6,91.165,91.165,0,0,0,6.685-32.821h15.826a61.176,61.176,0,0,1-15.5,38.418" transform="translate(53.329 53.349)" fill="#1d1d1d"/>
        </g>
      </g>
      <g id="Groupe_1317" data-name="Groupe 1317" transform="translate(36.471 68.004)" clip-path="url(#clip-path-2)">
        <path id="Tracé_1149" data-name="Tracé 1149" d="M18.656,58.154C13.421,63.774,6.505,72.369,3.08,80.45A35.009,35.009,0,0,0,0,95.067a25.387,25.387,0,0,0,3.508,12.7,27.927,27.927,0,0,0,7.315,8.17,42.834,42.834,0,0,0,12.787,6.634A80.642,80.642,0,0,0,47.68,126.5a135.114,135.114,0,0,0,29.039-2.487q6.324-1.192,12.509-2.826c4.8-1.223,11.566-3.473,11.892-3.6,2.635,6.658,4.976,12.233,4.976,12.233l9.024-27L90.067,90.138s2.287,5.4,5.066,12.419c-2.052.812-11.4,3.674-13.7,4.188-4.462,1-8.917,2.025-13.466,2.74-4.769.749-9.594,1.334-14.482,1.654A73.577,73.577,0,0,1,28.45,109a31.637,31.637,0,0,1-11.356-5.432,17.506,17.506,0,0,1-6.967-16.018,29.654,29.654,0,0,1,3.505-11.275,54.166,54.166,0,0,1,4.641-7.515A76.069,76.069,0,0,1,18.656,58.154Z" transform="translate(0 -11.031)" fill="#fff"/>
        <path id="Tracé_1150" data-name="Tracé 1150" d="M204.451,22.013c.256.955.538,1.909.765,2.864a28,28,0,0,1,.378,10.806,40.185,40.185,0,0,1-3.852,12.045,70.861,70.861,0,0,1-14.089,19.417c-3.806,3.76-7.727,7.341-11.768,10.69C170,82.417,158.437,91.561,146.517,96.566l-5.892-14.888a117.1,117.1,0,0,0,21.3-12.366c4.236-3.233,9.577-7.775,13.6-11.4a61.838,61.838,0,0,0,13.636-16.966A28.971,28.971,0,0,0,192.5,31.3a18.223,18.223,0,0,0-.481-8.133,17.047,17.047,0,0,0-4.4-7.277,25.723,25.723,0,0,0-7.807-5.336c-4.241-1.959-13.495-4.447-25.076-4.583-2.011-1.876-4.5-4.041-6-5.158,15.45-2.2,28.265.42,34.3,2.57a41.9,41.9,0,0,1,12.474,6.707,27.538,27.538,0,0,1,7.561,9.032c.29.556.588,1.105.883,1.657l.488,1.233" transform="translate(-20.875 0.006)" fill="#fff"/>
      </g>
    </g>
  </g>
</svg>
