<svg xmlns="http://www.w3.org/2000/svg" width="61.917" height="94.64" viewBox="0 0 61.917 94.64">
  <path id="picto_Bureaux" data-name="picto Bureaux" d="M61.917,62.625V40.309A1.014,1.014,0,0,0,60.908,39.3H55.626a1.014,1.014,0,0,0-1.008,1.008V57.451a1.355,1.355,0,0,1-1.356,1.356H51.677V55.482a1.007,1.007,0,0,0-1.008-1.008H11.332a1.007,1.007,0,0,0-1.008,1.008v3.481H8.643A1.35,1.35,0,0,1,7.31,57.607L7.3,40.309A1.007,1.007,0,0,0,6.29,39.3H1.008A1.014,1.014,0,0,0,0,40.309V62.445a3.641,3.641,0,0,0,3.625,3.829H27.741V84.82H10.263A3.274,3.274,0,0,0,6.986,88.1v5.534a1.007,1.007,0,0,0,1.008,1.008H12.52a1.007,1.007,0,0,0,1.008-1.008V91.374l14.213-.012v2.269a1,1,0,0,0,1.02,1.008h4.513a1.007,1.007,0,0,0,1.008-1.008V91.374L48.5,91.362v2.269A1.007,1.007,0,0,0,49.5,94.639H53.97a1,1,0,0,0,1.008-1l.06-5.546a3.271,3.271,0,0,0-3.265-3.277H34.283V66.274H58.267a3.735,3.735,0,0,0,3.649-3.649M11.272,27.045H50.765a1.014,1.014,0,0,1,1.008,1.008V48.52a1.014,1.014,0,0,1-1.008,1.008H11.272a1.014,1.014,0,0,1-1.008-1.008V28.053a1.014,1.014,0,0,1,1.008-1.008M16.83,0H45.207a6.575,6.575,0,0,1,6.566,6.566V21.487A1.014,1.014,0,0,1,50.765,22.5H11.272a1.014,1.014,0,0,1-1.008-1.008V6.566A6.568,6.568,0,0,1,16.83,0" fill="#fff" fill-rule="evenodd"/>
</svg>
