<svg xmlns="http://www.w3.org/2000/svg" width="101.103" height="81.564" viewBox="0 0 101.103 81.564">
  <path id="Picto_Commerces" data-name="Picto Commerces" d="M76.6,1.509h0a5.176,5.176,0,0,0-7.306,0L45.4,25.4A5.166,5.166,0,0,0,52.7,32.707L76.6,8.814a5.176,5.176,0,0,0,0-7.306m-54.363,43.8V69.565a.912.912,0,0,0,.929.906h4.47a.909.909,0,0,0,.918-.906V45.307a.919.919,0,0,0-.918-.918h-4.47a.921.921,0,0,0-.929.918m16.776,0V69.565a.909.909,0,0,0,.918.906H44.41a.909.909,0,0,0,.918-.906V45.307a.919.919,0,0,0-.918-.918H39.928a.919.919,0,0,0-.918.918m39.857,0V69.565a.909.909,0,0,1-.918.906H73.468a.909.909,0,0,1-.918-.906V45.307a.919.919,0,0,1,.918-.918H77.95a.919.919,0,0,1,.918.918m-16.764,0V69.565a.919.919,0,0,1-.929.906H56.7a.912.912,0,0,1-.929-.906V45.307a.921.921,0,0,1,.929-.918h4.47a.929.929,0,0,1,.929.918m30.164,29.1c-.4,3.906-3.212,7.153-7.153,7.153H16.27c-3.941,0-6.741-3.247-7.164-7.153L5.717,43.131A7.177,7.177,0,0,1,0,36.119V34.343A7.175,7.175,0,0,1,7.164,27.19H40.057a9.185,9.185,0,0,0,15.482,8.364l8.376-8.364H93.949a7.165,7.165,0,0,1,7.153,7.153v1.776a7.189,7.189,0,0,1-5.682,7.012Z" fill="#fff" fill-rule="evenodd"/>
</svg>
