<svg xmlns="http://www.w3.org/2000/svg" width="84.092" height="77.66" viewBox="0 0 84.092 77.66">
  <g id="Picto_entrepot" data-name="Picto entrepot" transform="translate(-237.454 -182.025)">
    <path id="Tracé_1187" data-name="Tracé 1187" d="M7.234,77.66H2.845a4.67,4.67,0,0,1-2.567-3.9c-.11-2.6-.252-5.2-.252-7.812C-.019,54.4,0,42.835.025,31.282a1.513,1.513,0,0,1,.439-1.108C1.759,29.1,3.13,28.1,4.458,27.079c3.039-2.337,6.1-4.652,9.129-7.011,4.378-3.39,8.723-6.8,13.09-10.193,3.7-2.875,7.472-5.662,11.115-8.6A5.927,5.927,0,0,1,44.7.966Q53.327,7.484,62.039,13.88c6.825,5.014,13.693,9.952,20.529,14.944a2.3,2.3,0,0,1,.955,1.053,12.365,12.365,0,0,1,.3,2.776c.011,8.723,0,17.445.022,26.168a6.716,6.716,0,0,0,.241,1.295V74.05c-1.361,3.105-3.094,3.094-7.472,2.644V75.159q0-18.186-.022-36.372a4.386,4.386,0,0,0-.3-1.723,4.558,4.558,0,0,0-4.542-2.754q-29.657.016-59.314.011c-3.368,0-5.2,1.865-5.2,5.288V77.66" transform="translate(237.454 182.025)" fill="#fff"/>
    <path id="Tracé_1188" data-name="Tracé 1188" d="M1.087,11.677H61.06V3.58H1.087Zm59.962,3.017H1.131V22.8H61.049Zm.011,10.84H1.131v8.1H61.06Z" transform="translate(248.297 217.726)" fill="#fff"/>
    <rect id="Rectangle_535" data-name="Rectangle 535" width="59.973" height="8.097" transform="translate(249.384 221.317)" fill="#fff"/>
    <rect id="Rectangle_536" data-name="Rectangle 536" width="59.918" height="8.108" transform="translate(249.428 232.421)" fill="#fff"/>
    <rect id="Rectangle_537" data-name="Rectangle 537" width="59.929" height="8.097" transform="translate(249.428 243.271)" fill="#fff"/>
    <rect id="Rectangle_538" data-name="Rectangle 538" width="84.089" height="77.66" transform="translate(237.457 182.026)" fill="none"/>
  </g>
</svg>
