<svg xmlns="http://www.w3.org/2000/svg" width="112.039" height="61.105" viewBox="0 0 112.039 61.105">
  <path id="picto_hotel" data-name="picto hotel" d="M112.038,57.715a3.4,3.4,0,0,1-6.793,0V45.7a5.731,5.731,0,0,1-1.39.283H6.782V57.715a3.391,3.391,0,0,1-6.782,0V3.391a3.391,3.391,0,0,1,6.782,0V33.333h97.073a5.731,5.731,0,0,1,1.39.283V27.467a3.4,3.4,0,0,1,6.793,0ZM44.444,21.6V6.07c5.426,0,56.087-3.278,56.087,22.177H70.114c-.136.011-.226.147-.362.147H15.429a3.4,3.4,0,0,1,0-6.793ZM37.651,8.331A8.331,8.331,0,1,1,29.321,0a8.331,8.331,0,0,1,8.331,8.331" fill="#fff"/>
</svg>
