<svg xmlns="http://www.w3.org/2000/svg" width="102.163" height="85.623" viewBox="0 0 102.163 85.623">
  <path id="Picto_restaurant" data-name="Picto restaurant" d="M102.163,82.379a3.2,3.2,0,0,1-3.256,3.244H3.244a3.244,3.244,0,1,1,0-6.488H98.906a3.2,3.2,0,0,1,3.256,3.244M51.149,28.121A44.747,44.747,0,0,1,95.8,72.034v.735H6.5A44.557,44.557,0,0,1,51.149,28.121m-13.565,9.61c-13.662,3.881-19.649,16.992-21.032,20.4l-.1.269a4.126,4.126,0,0,0-.171.453l-.037.073a3.2,3.2,0,0,0,1.983,4.1,2.466,2.466,0,0,0,.979.135,3.219,3.219,0,0,0,3.11-2.118l.208-.551.11-.282c1.236-3.024,6.256-13.369,16.637-16.258a3.268,3.268,0,0,0,2.265-3.967,3.149,3.149,0,0,0-3.954-2.253M88.17,0A33.9,33.9,0,0,0,86.9,7.774a2.817,2.817,0,0,0,.282,1.555,15.208,15.208,0,0,0,.71,1.408c.563.992,1.408,1.983,2.118,3.11a19.273,19.273,0,0,1,2.4,3.82,10.952,10.952,0,0,1,.857,2.534,3.956,3.956,0,0,1,.135,1.151v.832a1.34,1.34,0,0,1-.135.71,11.622,11.622,0,0,1-1.836,4.236,11.555,11.555,0,0,1-3.11,3.244c.282-1.408.7-2.816.845-4.089a11.856,11.856,0,0,0,.282-3.82V21.62a.8.8,0,0,0-.147-.563c-.135-.428-.416-.992-.563-1.42-.563-.992-1.408-2.118-2.118-3.11a19.737,19.737,0,0,1-2.4-3.807,12.365,12.365,0,0,1-.71-2.412,5.756,5.756,0,0,1,.147-2.681,11.223,11.223,0,0,1,1.836-4.236A8.021,8.021,0,0,1,88.17,0M80.114,15.119a17.574,17.574,0,0,0,.282,4.1c.147.416.282.416.428.845.282.428.71.845,1.126,1.408a12.13,12.13,0,0,1,1.273,1.983,2.549,2.549,0,0,1,.428,1.555v1.555a6.028,6.028,0,0,1-1.273,2.265A6.325,6.325,0,0,1,80.4,30.239c0-.845-.135-1.555-.135-2.265s-.147-1.273-.147-1.689v-.428l-.282-.416c-.282-.294-.563-.857-.992-1.42a12.421,12.421,0,0,1-1.273-1.983,11.425,11.425,0,0,1-.416-1.543V19.355a.52.52,0,0,1,.135-.416,5,5,0,0,1,1.273-2.265,1.973,1.973,0,0,1,1.555-1.555M51.149,15.4A6.325,6.325,0,0,1,57.5,21.755H44.795A6.325,6.325,0,0,1,51.149,15.4" fill="#fff"/>
</svg>
