<svg xmlns="http://www.w3.org/2000/svg" width="72.901" height="95.926" viewBox="0 0 72.901 95.926">
  <path id="Picto_bar" data-name="Picto bar" d="M72.9,11.159c-.136-1.573-1.276-3.01-3.282-4.434C63.9,2.725,51.177,0,36.45,0S9,2.725,3.282,6.725C1.288,8.013.136,9.438,0,11.011v.433a4.248,4.248,0,0,0,1,2.712,1.127,1.127,0,0,1,.285.57L31.162,62.051a4.536,4.536,0,0,0,.718.991V77.768c-12.869.718-22.727,4.434-22.727,9,0,5,12.15,9.153,27.3,9.153s27.31-4.149,27.31-9.153c0-4.57-9.871-8.286-22.876-9V63.042a6.23,6.23,0,0,0,.718-.991L71.477,14.726c.149-.285.285-.433.433-.718a4.824,4.824,0,0,0,.991-2.564Zm-9.859,4.855c-2.861,3.864-13.723,6.577-26.592,6.577S12.72,19.73,9.859,16.014a5.324,5.324,0,0,1-.706-2.291,5.075,5.075,0,0,1,2.428-3.282C15.866,7.58,25.44,5.858,36.45,5.858s20.585,1.573,24.87,4.583a4.707,4.707,0,0,1,2.44,3.282,4.282,4.282,0,0,1-.718,2.291" fill="#fff"/>
</svg>
