<svg xmlns="http://www.w3.org/2000/svg" width="64.314" height="86.183" viewBox="0 0 64.314 86.183">
  <path id="Picto_Discotheques" data-name="Picto Discotheques" d="M6.349,0H57.966a6.358,6.358,0,0,1,6.349,6.349v73.5a6.348,6.348,0,0,1-6.349,6.337H6.349A6.348,6.348,0,0,1,0,79.845V6.349A6.358,6.358,0,0,1,6.349,0m25.8,66.508a9.454,9.454,0,1,0-9.448-9.46,9.461,9.461,0,0,0,9.448,9.46m0-38.86A9.454,9.454,0,1,0,22.7,18.2a9.452,9.452,0,0,0,9.448,9.448m0,8.195A21.206,21.206,0,1,0,53.358,57.049,21.2,21.2,0,0,0,32.152,35.843" fill="#fff" fill-rule="evenodd"/>
</svg>
