<svg xmlns="http://www.w3.org/2000/svg" width="95.035" height="74.401" viewBox="0 0 95.035 74.401">
  <path id="Picto_ecoles" data-name="Picto ecoles" d="M33.915,6.836V9.915H29.5V6.284A6.291,6.291,0,0,1,35.776,0H59.225A6.291,6.291,0,0,1,65.5,6.284v3.63H61.109V6.836A2.412,2.412,0,0,0,58.7,4.423H36.328a2.42,2.42,0,0,0-2.413,2.413m61.12,47.15V18.956a6.3,6.3,0,0,0-6.284-6.284H6.284A6.293,6.293,0,0,0,0,18.956V53.986a.971.971,0,0,0,.965.965H39.751V53.078a2.412,2.412,0,0,1,2.413-2.413h10.7a2.422,2.422,0,0,1,2.424,2.413v1.873H94.059a.973.973,0,0,0,.977-.965M55.284,57.708v1.873a2.422,2.422,0,0,1-2.424,2.413h-10.7a2.412,2.412,0,0,1-2.413-2.413V57.708H.965A.971.971,0,0,0,0,58.673v9.444A6.293,6.293,0,0,0,6.284,74.4H88.751a6.3,6.3,0,0,0,6.284-6.284V58.673a.973.973,0,0,0-.977-.965Z" fill="#fff" fill-rule="evenodd"/>
</svg>
