<svg xmlns="http://www.w3.org/2000/svg" xmlns:xlink="http://www.w3.org/1999/xlink" width="185.139" height="105.548" viewBox="0 0 185.139 105.548">
  <defs>
    <clipPath id="clip-path">
      <rect id="Rectangle_520" data-name="Rectangle 520" width="185.139" height="105.548" fill="none"/>
    </clipPath>
  </defs>
  <g id="Picto_Immobilier" data-name="Picto Immobilier" transform="translate(20 89)">
    <g id="Groupe_1356" data-name="Groupe 1356" transform="translate(-20 -89)" clip-path="url(#clip-path)">
      <path id="Tracé_1159" data-name="Tracé 1159" d="M8.66,75.789h93.352a.9.9,0,0,1,.981.771v4.276a.894.894,0,0,1-.981.771H8.66a.889.889,0,0,1-.97-.771V76.56a.9.9,0,0,1,.97-.771m18.867-2.675h5.713V42.857H51.755V73.114H83.192a2.75,2.75,0,0,0,2.745-2.745V43.348l-.012-.3L58.087,18a3.743,3.743,0,0,0-5.456,0L24.793,43.044l-.012.3V70.369a2.75,2.75,0,0,0,2.745,2.745M59.208,42.857H77.479V59.13H59.208Zm30.981.175L60,15.86a6.944,6.944,0,0,0-4.638-1.916v.012a6.947,6.947,0,0,0-4.649,1.9L20.529,43.032H18.3a3.625,3.625,0,0,1-3.364-4.953,9.7,9.7,0,0,1,2.488-3.645l33.89-30.5a5.69,5.69,0,0,1,8.1,0l33.9,30.5a9.805,9.805,0,0,1,2.477,3.645,3.625,3.625,0,0,1-3.364,4.953Z" transform="translate(82.146 23.941)" fill="#fff" fill-rule="evenodd"/>
      <path id="Tracé_1160" data-name="Tracé 1160" d="M9.626,97.125H27.768V87.067H24.813v-7.8h2.956V76.051H24.813v-7.8h2.956V65.023H24.813v-7.8h2.956V45.385H14.953a.555.555,0,0,0-.561.526v1.121H12.547a.552.552,0,0,0-.549.526v2.734H9.416a2.647,2.647,0,0,0-1.425,2.336V95.49a1.64,1.64,0,0,0,1.636,1.636M0,104.345V100.49a1.013,1.013,0,0,1,1.028-.981H85.56a1.013,1.013,0,0,1,1.028.981v3.855a1,1,0,0,1-1.028.981H1.028A1,1,0,0,1,0,104.345M41.273,20.222V13.283a1.077,1.077,0,0,1,1.086-1.051h1.3V.526A.536.536,0,0,1,44.205,0h.374a.536.536,0,0,1,.549.526V12.231h1.3a1.077,1.077,0,0,1,1.086,1.051v6.939h3.633a1.073,1.073,0,0,1,1.1,1.051v4.965l2.967,3.026h1.215A1.745,1.745,0,0,1,58.165,31V95.373a1.755,1.755,0,0,1-1.741,1.752H32.36a1.748,1.748,0,0,1-1.741-1.752V31a1.745,1.745,0,0,1,1.741-1.741h1.2l2.979-3.026V21.273a1.073,1.073,0,0,1,1.1-1.051ZM46.156,47.85h8.925V37.967H46.156Zm0,13.972h8.925V51.939H46.156Zm0,13.972h8.925V65.911H46.156Zm0,13.96h8.925V79.871H46.156Zm-12.453,0h8.925V79.871H33.7Zm0-13.96h8.925V65.911H33.7Zm0-13.972h8.925V51.939H33.7Zm0-13.972h8.925V37.967H33.7ZM77.161,97.125H60.829V87.067h3.8V80.116h-3.8V77.242h3.8V70.28h-3.8V67.394h3.8V60.443h-3.8V51.32H72.523a.709.709,0,0,1,.713.678v2.278h3.925A1.436,1.436,0,0,1,78.6,55.712V95.688a1.443,1.443,0,0,1-1.437,1.437M66.74,87.067h8.692V80.1H66.74Zm0-9.825h8.692V70.28H66.74Zm0-9.848h8.692V60.443H66.74ZM12.593,79.263h8.376v7.8H12.593Zm0-22.044h8.376v7.8H12.593Zm0,11.028h8.376v7.8H12.593Z" transform="translate(0 -0.001)" fill="#fff" fill-rule="evenodd"/>
    </g>
  </g>
</svg>
