<svg xmlns="http://www.w3.org/2000/svg" width="98.063" height="89.101" viewBox="0 0 98.063 89.101">
  <path id="Picto_Musée" data-name="Picto Musée" d="M71.076,34.23V30.864a1.152,1.152,0,0,1,1.145-1.145H96.9a1.155,1.155,0,0,1,1.158,1.145V34.23A1.155,1.155,0,0,1,96.9,35.375H72.221a1.143,1.143,0,0,1-1.145-1.145m22.6,44.881V38.578a1.155,1.155,0,0,0-1.145-1.158H76.61a1.166,1.166,0,0,0-1.158,1.158V79.111a1.146,1.146,0,0,0,1.158,1.145H92.529a1.143,1.143,0,0,0,1.145-1.145M0,34.23V30.864a1.152,1.152,0,0,1,1.145-1.145h24.7a1.152,1.152,0,0,1,1.145,1.145V34.23a1.152,1.152,0,0,1-1.145,1.145H1.145A1.143,1.143,0,0,1,0,34.23M1.949,21.051,47.661.307a3.212,3.212,0,0,1,2.739,0L96.113,21.051a3.289,3.289,0,0,1,1.949,3.026v2.031A1.164,1.164,0,0,1,96.9,27.252H1.145A1.152,1.152,0,0,1,0,26.107V24.076a3.268,3.268,0,0,1,1.949-3.026m13.738.477H82.375a.459.459,0,0,0,.463-.354.417.417,0,0,0-.273-.5L49.229,6.631a.652.652,0,0,0-.4,0L15.5,20.669a.417.417,0,0,0-.273.5.459.459,0,0,0,.463.354M0,87.957v-4.5a1.143,1.143,0,0,1,1.145-1.145H96.9a1.146,1.146,0,0,1,1.158,1.145v4.5A1.155,1.155,0,0,1,96.9,89.1H1.145A1.152,1.152,0,0,1,0,87.957m22.6-8.845V38.578a1.155,1.155,0,0,0-1.145-1.158H5.533a1.155,1.155,0,0,0-1.145,1.158V79.111a1.143,1.143,0,0,0,1.145,1.145H21.452A1.143,1.143,0,0,0,22.6,79.111M35.545,34.23V30.864a1.143,1.143,0,0,1,1.145-1.145H61.372a1.143,1.143,0,0,1,1.145,1.145V34.23a1.152,1.152,0,0,1-1.145,1.145H36.69a1.143,1.143,0,0,1-1.145-1.145m22.6,44.881V38.578a1.158,1.158,0,0,0-1.158-1.158H41.065a1.155,1.155,0,0,0-1.145,1.158V79.111a1.143,1.143,0,0,0,1.145,1.145H56.984a1.146,1.146,0,0,0,1.158-1.145" transform="translate(0 -0.001)" fill="#fff" fill-rule="evenodd"/>
</svg>
