<svg xmlns="http://www.w3.org/2000/svg" width="90.503" height="85.603" viewBox="0 0 90.503 85.603">
  <path id="Picto_terrain" data-name="Picto terrain" d="M26.917,78.934V73.29h7.839v5.644A6.678,6.678,0,0,0,41.424,85.6h7.668a6.675,6.675,0,0,0,6.656-6.668V73.29h7.839v5.644A6.678,6.678,0,0,0,70.254,85.6H77.91a6.685,6.685,0,0,0,6.668-6.668V73.29H90.5V63.574H84.578V31.781H90.5V22.053H84.578V15.506C84.578,11.837,77.752,0,74.082,0h0c-3.669,0-10.5,11.837-10.5,15.506v6.546H55.748V15.506C55.748,11.837,48.921,0,45.251,0h0c-3.669,0-10.5,11.837-10.5,15.506v6.546H26.917V15.506C26.917,11.837,20.1,0,16.433,0h0C12.751,0,5.925,11.837,5.925,15.506v6.546H0v9.728H5.925V63.574H0V73.29H5.925v5.644A6.685,6.685,0,0,0,12.593,85.6h7.668a6.667,6.667,0,0,0,6.656-6.668M55.748,31.781h7.839V63.574H55.748Zm-28.831,0h7.839V63.574H26.917Z" fill="#fff" fill-rule="evenodd"/>
</svg>
