<svg xmlns="http://www.w3.org/2000/svg" width="98.052" height="81.564" viewBox="0 0 98.052 81.564">
  <path id="Picto_Usine" data-name="Picto Usine" d="M32.031,8.825a1.024,1.024,0,0,1,1.022-.95h8.522a1.024,1.024,0,0,1,1.022.95q.883,18.479,1.767,36.923l-14.291,2.74c.589-12.308,1.37-27.344,1.959-39.663M0,80.567V76.552a1.016,1.016,0,0,1,1.01-1.01H97.054a1,1,0,0,1,1,1.01v4.014a1,1,0,0,1-1,1H1.01a1,1,0,0,1-1.01-1M16.731,1.878a1.006,1.006,0,0,0-1.01-.962H7.187a1.015,1.015,0,0,0-1.01.962Q4.465,37.647,2.74,73.427H20.168q-1.713-35.787-3.437-71.55M79.3,0a7.6,7.6,0,0,1,7.055,7.464,7.283,7.283,0,0,1-1.815,4.639.964.964,0,0,1-.757.349H59.867a1,1,0,0,1-.962-.733,5.687,5.687,0,0,1-.228-1.707c.072-3.053,3.654-5.433,5.637-5.385s1.8.288,2.56.709A6.606,6.606,0,0,1,70.7,3.957a4.141,4.141,0,0,1,1.815.361A6.753,6.753,0,0,1,79.3,0M22.368,73.427H95.179V48.608a.974.974,0,0,0-1.022-1.01L70.564,51.973,70.552,47.6,46.971,51.973V47.6L23.738,51.937a1.654,1.654,0,0,0-1.37,1.647ZM73.93,56.685h15.3v7.031H73.93Zm-45.625,0H43.593v7.031H28.305Zm22.812,0H66.406v7.031H51.117ZM55.36,16.457a1.011,1.011,0,0,1,1.01-.937h8.57a1,1,0,0,1,1.01.937q1.046,14.657,2.079,29.291l-14.952,2.74c.108-1.43.2-2.861.312-4.291.589-8.329,1.37-19.4,1.971-27.74" fill="#fff" fill-rule="evenodd"/>
</svg>
