<svg xmlns="http://www.w3.org/2000/svg" width="193.927" height="82.141" viewBox="0 0 193.927 82.141">
  <g id="Groupe_1431" data-name="Groupe 1431" transform="translate(-117.037 -8933.584)">
    <g id="Composant_2_8" data-name="Composant 2 – 8" transform="translate(117.037 8933.584)">
      <rect id="Rectangle_5" data-name="Rectangle 5" width="187.671" height="33.885" rx="16.943" transform="translate(3.128 3.128)" fill="#d01a00"/>
      <g id="Tracé_1194" data-name="Tracé 1194" fill="none">
        <path d="M20.07,0H173.856a20.07,20.07,0,0,1,0,40.141H20.07A20.07,20.07,0,0,1,20.07,0Z" stroke="none"/>
        <path d="M 20.07032775878906 1 C 17.49540710449219 1 14.99806213378906 1.504074096679688 12.64761352539062 2.498226165771484 C 10.37686157226562 3.458675384521484 8.3372802734375 4.833873748779297 6.585586547851562 6.585575103759766 C 4.833877563476562 8.337276458740234 3.45867919921875 10.37685012817383 2.49822998046875 12.64762496948242 C 1.50408935546875 14.99805068969727 1 17.49542617797852 1 20.07035064697266 C 1 22.6452751159668 1.50408935546875 25.14265060424805 2.49822998046875 27.49307632446289 C 3.45867919921875 29.76385116577148 4.833877563476562 31.80342483520508 6.585586547851562 33.55512619018555 C 8.3372802734375 35.30682373046875 10.37686157226562 36.68202590942383 12.64761352539062 37.64247512817383 C 14.99806213378906 38.63662719726562 17.49540710449219 39.14070129394531 20.07032775878906 39.14070129394531 L 173.8561553955078 39.14070129394531 C 176.4310760498047 39.14070129394531 178.9284515380859 38.63662719726562 181.2788848876953 37.64247512817383 C 183.5496520996094 36.68202590942383 185.5892333984375 35.30682373046875 187.3409271240234 33.55512619018555 C 189.0926361083984 31.80342483520508 190.4678344726562 29.76385116577148 191.4282836914062 27.49307632446289 C 192.4224243164062 25.14265060424805 192.926513671875 22.6452751159668 192.926513671875 20.07035064697266 C 192.926513671875 17.49542617797852 192.4224243164062 14.99805068969727 191.4282836914062 12.64762496948242 C 190.4678344726562 10.37685012817383 189.0926361083984 8.337276458740234 187.3409271240234 6.585575103759766 C 185.5892333984375 4.833873748779297 183.5496520996094 3.458675384521484 181.2788848876953 2.498226165771484 C 178.9284515380859 1.504074096679688 176.4310760498047 1 173.8561553955078 1 L 20.07032775878906 1 M 20.07032775878906 0 L 173.8561553955078 0 C 184.9407043457031 0 193.926513671875 8.985799789428711 193.926513671875 20.07035064697266 C 193.926513671875 31.15489959716797 184.9407043457031 40.14070129394531 173.8561553955078 40.14070129394531 L 20.07032775878906 40.14070129394531 C 8.985809326171875 40.14070129394531 0 31.15489959716797 0 20.07035064697266 C 0 8.985799789428711 8.985809326171875 0 20.07032775878906 0 Z" stroke="none" fill="#d01a00"/>
      </g>
      <text id="CONTACTEZ-NOUS" transform="translate(96.963 24.511)" fill="#fff" font-size="12" font-family="HelveticaNeue-Bold, Helvetica Neue" font-weight="700" letter-spacing="0.05em"><tspan x="-60.468" y="0">CONTACTEZ-NOUS</tspan></text>
    </g>
    <g id="Composant_2_12" data-name="Composant 2 – 12" transform="translate(117.037 8975.584)">
      <rect id="Rectangle_5-2" data-name="Rectangle 5" width="187.671" height="33.885" rx="16.943" transform="translate(3.128 3.128)" fill="#1d1d1d"/>
      <g id="Tracé_1194-2" data-name="Tracé 1194" fill="none">
        <path d="M20.07,0H173.856a20.07,20.07,0,0,1,0,40.141H20.07A20.07,20.07,0,0,1,20.07,0Z" stroke="none"/>
        <path d="M 20.07032775878906 1 C 17.49540710449219 1 14.99806213378906 1.504074096679688 12.64761352539062 2.498226165771484 C 10.37686157226562 3.458675384521484 8.3372802734375 4.833873748779297 6.585586547851562 6.585575103759766 C 4.833877563476562 8.337276458740234 3.45867919921875 10.37685012817383 2.49822998046875 12.64762496948242 C 1.50408935546875 14.99805068969727 1 17.49542617797852 1 20.07035064697266 C 1 22.6452751159668 1.50408935546875 25.14265060424805 2.49822998046875 27.49307632446289 C 3.45867919921875 29.76385116577148 4.833877563476562 31.80342483520508 6.585586547851562 33.55512619018555 C 8.3372802734375 35.30682373046875 10.37686157226562 36.68202590942383 12.64761352539062 37.64247512817383 C 14.99806213378906 38.63662719726562 17.49540710449219 39.14070129394531 20.07032775878906 39.14070129394531 L 173.8561553955078 39.14070129394531 C 176.4310760498047 39.14070129394531 178.9284515380859 38.63662719726562 181.2788848876953 37.64247512817383 C 183.5496520996094 36.68202590942383 185.5892333984375 35.30682373046875 187.3409271240234 33.55512619018555 C 189.0926361083984 31.80342483520508 190.4678344726562 29.76385116577148 191.4282836914062 27.49307632446289 C 192.4224243164062 25.14265060424805 192.926513671875 22.6452751159668 192.926513671875 20.07035064697266 C 192.926513671875 17.49542617797852 192.4224243164062 14.99805068969727 191.4282836914062 12.64762496948242 C 190.4678344726562 10.37685012817383 189.0926361083984 8.337276458740234 187.3409271240234 6.585575103759766 C 185.5892333984375 4.833873748779297 183.5496520996094 3.458675384521484 181.2788848876953 2.498226165771484 C 178.9284515380859 1.504074096679688 176.4310760498047 1 173.8561553955078 1 L 20.07032775878906 1 M 20.07032775878906 0 L 173.8561553955078 0 C 184.9407043457031 0 193.926513671875 8.985799789428711 193.926513671875 20.07035064697266 C 193.926513671875 31.15489959716797 184.9407043457031 40.14070129394531 173.8561553955078 40.14070129394531 L 20.07032775878906 40.14070129394531 C 8.985809326171875 40.14070129394531 0 31.15489959716797 0 20.07035064697266 C 0 8.985799789428711 8.985809326171875 0 20.07032775878906 0 Z" stroke="none" fill="#1d1d1d"/>
      </g>
      <text id="CONTACTEZ-NOUS-2" data-name="CONTACTEZ-NOUS" transform="translate(96.963 24.511)" fill="#fff" font-size="12" font-family="HelveticaNeue-Bold, Helvetica Neue" font-weight="700" letter-spacing="0.05em"><tspan x="-60.468" y="0">CONTACTEZ-NOUS</tspan></text>
    </g>
  </g>
</svg>
