<svg id="Picto_Compte" data-name="Picto Compte" xmlns="http://www.w3.org/2000/svg" xmlns:xlink="http://www.w3.org/1999/xlink" width="50" height="50" viewBox="0 0 50 50">
  <defs>
    <clipPath id="clip-path">
      <rect id="Rectangle_484" data-name="Rectangle 484" width="50" height="50" fill="none"/>
    </clipPath>
  </defs>
  <g id="Groupe_1258" data-name="Groupe 1258" clip-path="url(#clip-path)">
    <path id="Tracé_1040" data-name="Tracé 1040" d="M17.156,35.013s5.138-2.569,2.569-5.138c-1.039-1.038-1.645-2.921-2.015-4.96-.6-.014-1.393-1.309-1.825-3.041-.459-1.836-.336-3.447.276-3.6.3-.075.67.223,1.019.768-.023-.8-.023-1.519-.023-2.012,0-2.568,2.569-7.706,7.706-7.706s7.706,5.137,7.706,7.706c0,.493,0,1.212-.023,2.012.348-.545.717-.843,1.017-.768.614.155.735,1.767.276,3.6-.432,1.732-1.225,3.026-1.825,3.041-.37,2.039-.975,3.922-2.014,4.96-2.57,2.569,2.569,5.138,2.569,5.138s8.028,3.212,10.275,5.138v0a3.581,3.581,0,0,1,.85,1.437A25,25,0,1,0,6.122,41.38a3.164,3.164,0,0,1,.759-1.229c2.247-1.926,10.275-5.138,10.275-5.138" fill="#fff"/>
    <path id="Tracé_1041" data-name="Tracé 1041" d="M25,50a24.931,24.931,0,0,0,18.693-8.408,3.588,3.588,0,0,0-.85-1.437v0c-2.247-1.926-10.275-5.138-10.275-5.138S27.43,32.444,30,29.875c1.039-1.038,1.644-2.92,2.014-4.959.6-.016,1.393-1.31,1.825-3.041.459-1.833.338-3.446-.276-3.6-.3-.075-.669.224-1.017.768.019-.8.023-1.519.023-2.012,0-2.569-2.569-7.706-7.706-7.706s-7.706,5.138-7.706,7.706c0,.493,0,1.215.023,2.012-.349-.544-.715-.843-1.019-.768-.612.153-.735,1.765-.276,3.6.432,1.731,1.227,3.026,1.825,3.041.37,2.039.976,3.921,2.015,4.959,2.569,2.569-2.569,5.138-2.569,5.138S9.128,38.225,6.881,40.151a3.152,3.152,0,0,0-.758,1.229A24.933,24.933,0,0,0,25,50" fill="#c91900"/>
  </g>
</svg>
