<?xml version="1.0" standalone="no"?>
<!DOCTYPE svg PUBLIC "-//W3C//DTD SVG 20010904//EN"
 "http://www.w3.org/TR/2001/REC-SVG-20010904/DTD/svg10.dtd">
<svg version="1.0" xmlns="http://www.w3.org/2000/svg"
 width="1080.000000pt" height="1080.000000pt" viewBox="0 0 1080.000000 1080.000000"
 preserveAspectRatio="xMidYMid meet">
<metadata>
Created by potrace 1.14, written by Peter Selinger 2001-2017
</metadata>
<g transform="translate(0.000000,1080.000000) scale(0.100000,-0.100000)"
fill="#000000" stroke="none">
<path d="M5719 9355 c-3 -2 -23 -7 -45 -9 -69 -7 -218 -49 -241 -67 -7 -6 -13
-8 -13 -5 0 8 -152 -72 -160 -84 -3 -4 -18 -14 -35 -23 -44 -23 -165 -142
-220 -217 -87 -119 -157 -280 -180 -415 -3 -16 -8 -37 -10 -45 -23 -79 -22
-396 1 -490 3 -14 7 -37 9 -52 13 -87 95 -272 161 -365 161 -225 431 -373 729
-399 86 -8 265 -9 265 -2 0 3 8 5 17 4 21 -3 132 19 198 40 51 16 186 74 195
84 5 5 26 17 75 44 11 6 22 13 25 17 3 3 22 18 43 33 l37 28 0 504 0 503 -402
0 -403 0 0 -219 c1 -121 4 -223 8 -227 4 -4 72 -7 150 -8 78 0 143 -3 145 -7
12 -27 19 -68 14 -72 -4 -2 -7 -52 -6 -109 1 -105 1 -106 -25 -116 -71 -27
-124 -31 -246 -17 -61 7 -185 45 -185 57 0 5 -6 9 -12 9 -7 0 -26 12 -43 26
-16 14 -35 29 -40 32 -19 12 -70 86 -92 132 -34 71 -49 125 -59 216 -30 264
27 476 164 612 58 56 104 84 190 112 95 31 279 16 364 -32 13 -7 25 -12 28
-13 7 0 71 -46 94 -67 11 -10 23 -18 26 -18 4 0 29 28 55 61 27 34 58 72 69
85 12 13 32 38 46 56 14 18 35 44 47 58 12 14 34 40 49 59 l28 33 -40 35 c-78
69 -267 183 -303 183 -5 0 -22 5 -38 11 -15 6 -29 10 -30 10 -2 0 -17 5 -35
10 -18 6 -44 12 -58 15 -35 7 -306 15 -311 9z"/>
<path d="M1851 9320 c-4 -3 -7 -478 -7 -1055 l0 -1051 476 2 c502 3 512 3 630
28 299 62 482 221 536 467 9 44 11 188 3 241 -13 79 -71 189 -134 251 -47 46
-118 89 -205 124 l-25 10 40 21 c97 52 187 180 222 317 10 38 11 192 2 240 -9
51 -52 150 -74 172 -8 7 -22 23 -32 36 -44 55 -130 105 -239 141 -106 34 -141
40 -314 51 -114 8 -869 12 -879 5z m839 -433 c85 -20 122 -43 147 -90 19 -37
22 -139 5 -160 -7 -8 -9 -16 -6 -20 3 -3 -13 -24 -35 -46 -61 -61 -147 -79
-362 -72 l-36 1 -1 194 c0 174 2 195 16 198 21 4 251 -1 272 -5z m106 -817
c70 -19 115 -51 136 -96 21 -45 23 -144 3 -190 -19 -45 -77 -102 -114 -111
-14 -3 -30 -8 -36 -11 -17 -10 -45 -12 -216 -16 l-166 -4 -1 225 0 224 167 -2
c121 -1 183 -6 227 -19z"/>
<path d="M3772 9315 c-7 -12 -9 -2094 -2 -2096 3 -1 128 -2 278 -3 176 -1 272
2 273 9 1 5 2 479 3 1052 1 1037 1 1043 -19 1044 -193 5 -528 2 -533 -6z"/>
<path d="M8097 8363 c-1 -1 -70 -4 -152 -8 -175 -7 -218 -10 -300 -20 -33 -4
-73 -9 -90 -10 -16 -2 -48 -6 -70 -10 -22 -3 -56 -8 -75 -11 -38 -5 -94 -14
-125 -21 -11 -2 -29 -5 -40 -7 -25 -4 -85 -16 -106 -22 -14 -4 -15 -23 -13
-137 3 -166 2 -159 14 -152 19 12 155 27 350 40 89 6 502 6 570 0 30 -2 87 -7
125 -9 39 -3 90 -8 115 -11 101 -12 126 -16 150 -20 14 -3 41 -7 60 -10 19 -3
60 -10 90 -15 30 -5 69 -12 85 -14 65 -11 306 -76 410 -111 150 -50 368 -157
450 -222 6 -4 33 -26 60 -47 83 -64 207 -197 260 -275 64 -97 119 -232 144
-354 22 -111 23 -315 1 -422 -18 -90 -18 -90 -20 -90 -1 0 -3 -7 -5 -15 -38
-176 -120 -356 -279 -614 -56 -90 -204 -296 -244 -341 -10 -11 -38 -45 -62
-75 -55 -67 -313 -327 -393 -395 -32 -28 -71 -61 -86 -75 -30 -28 -128 -114
-180 -157 -18 -15 -44 -38 -57 -50 -13 -13 -25 -23 -28 -23 -3 0 -18 -12 -33
-26 -15 -15 -59 -52 -98 -83 -38 -31 -72 -58 -75 -61 -9 -11 -195 -156 -230
-180 -19 -13 -37 -27 -40 -31 -10 -13 -339 -229 -349 -229 -6 0 -11 -3 -11 -8
0 -4 -17 -16 -37 -27 -21 -11 -40 -22 -43 -26 -3 -3 -25 -16 -50 -30 -25 -13
-47 -27 -50 -30 -3 -3 -50 -30 -105 -60 -55 -29 -113 -61 -130 -70 -75 -41
-221 -113 -233 -115 -8 -1 -22 -10 -31 -18 -10 -9 -22 -16 -27 -16 -9 0 -114
-47 -122 -55 -2 -1 45 -124 103 -271 59 -148 131 -330 161 -405 76 -195 74
-190 98 -183 25 8 204 90 226 103 8 5 53 29 100 54 47 24 101 53 120 64 19 12
73 42 120 69 47 26 87 50 90 54 3 3 59 39 125 80 66 40 122 76 125 80 3 3 41
30 85 60 101 68 247 172 330 235 23 18 157 119 205 155 55 41 95 74 98 83 2 4
10 7 17 7 7 0 15 3 17 8 2 4 25 25 53 47 27 22 55 45 61 50 6 6 39 35 74 65
35 30 73 64 86 75 12 11 55 49 95 85 167 150 459 435 544 534 28 32 59 68 70
80 25 26 109 133 163 206 23 30 45 60 50 65 74 88 369 594 354 609 -3 3 -1 6
5 6 6 0 13 8 16 18 3 9 24 62 47 117 23 55 44 107 46 115 2 8 17 60 34 114 17
55 33 111 35 125 3 15 7 37 10 51 4 14 8 39 11 55 2 17 7 40 10 53 19 91 26
398 10 492 -4 25 -9 54 -10 65 -3 18 -6 34 -21 100 -21 94 -52 191 -78 245
-28 59 -137 248 -158 274 -210 266 -378 404 -709 583 -49 27 -266 122 -290
128 -8 2 -49 16 -90 30 -41 14 -82 28 -90 30 -8 2 -67 17 -130 33 -104 27
-140 35 -205 46 -11 2 -42 7 -70 12 -55 9 -64 11 -67 13 -2 1 -23 4 -48 6 -25
2 -54 6 -65 8 -73 17 -647 52 -658 40z"/>
<path d="M3956 6843 c-4 -4 -46 -7 -94 -7 l-87 -1 0 -1050 0 -1050 280 -2 280
-2 -2 1042 c-1 573 -2 1047 -2 1054 -1 8 -48 11 -174 10 -95 0 -177 2 -183 6
-6 3 -14 3 -18 0z"/>
<path d="M4918 6841 c-10 -3 -56 -6 -103 -5 -47 1 -85 -1 -85 -5 0 -3 12 -42
26 -86 14 -44 27 -87 29 -96 2 -9 13 -49 25 -89 12 -40 23 -81 25 -91 2 -10 9
-28 16 -41 7 -13 12 -24 11 -25 -1 -2 -2 -4 -1 -5 0 -2 2 -10 4 -18 1 -8 13
-48 25 -89 12 -41 23 -81 25 -90 3 -9 31 -106 65 -216 33 -110 62 -209 64
-220 2 -11 16 -56 30 -99 14 -44 23 -83 20 -88 -3 -4 0 -8 5 -8 6 0 11 -8 11
-17 0 -10 7 -38 16 -63 9 -25 18 -54 20 -64 2 -11 10 -40 18 -65 8 -25 24 -80
36 -121 12 -41 26 -86 30 -100 5 -14 11 -36 14 -50 2 -14 11 -44 20 -68 8 -23
16 -46 17 -50 1 -4 3 -11 5 -17 6 -19 38 -130 41 -145 7 -29 11 -45 13 -47 2
-2 3 -9 4 -15 1 -10 76 -13 341 -13 l339 0 23 73 c12 40 25 82 27 95 4 22 10
40 23 75 3 9 7 22 9 29 3 15 24 83 31 103 3 8 7 22 8 30 2 8 15 53 29 100 15
47 28 92 30 100 2 8 20 69 40 135 21 66 39 129 41 139 2 10 9 33 15 51 6 18
13 41 15 51 2 10 34 118 70 239 37 121 68 227 70 235 3 12 53 178 109 365 2 6
7 25 11 43 4 18 12 35 16 38 5 3 7 9 5 13 -3 4 4 36 15 72 12 35 24 76 29 90
l8 26 -287 -1 -286 -1 -28 -120 c-27 -115 -31 -133 -42 -182 -3 -13 -7 -31 -9
-40 -22 -89 -46 -193 -49 -213 -3 -14 -15 -65 -27 -115 -12 -49 -23 -98 -25
-108 -2 -9 -11 -45 -20 -80 -9 -34 -18 -71 -20 -82 -1 -11 -8 -42 -15 -70 -7
-27 -14 -59 -15 -70 -2 -11 -4 -20 -5 -20 -2 0 -4 -11 -13 -55 -4 -21 -22 -99
-31 -135 -3 -11 -20 -87 -21 -95 -9 -50 -50 -200 -55 -200 -6 0 -61 223 -75
302 -3 15 -9 38 -15 52 -5 13 -6 26 -4 29 3 3 1 14 -4 24 -5 10 -12 34 -15 53
-2 19 -12 62 -20 95 -9 33 -18 71 -21 85 -4 21 -19 83 -41 170 -20 78 -45 183
-49 202 -5 25 -30 128 -48 198 -7 25 -13 50 -14 55 0 6 -2 12 -3 15 -1 3 -5
16 -7 30 -10 54 -55 236 -64 257 -9 22 -12 22 -187 20 -98 0 -183 1 -188 5 -6
3 -18 3 -27 -1z"/>
<path d="M7316 6843 c-4 -4 -67 -6 -141 -6 -141 2 -145 1 -135 -42 1 -5 2 -57
1 -115 -2 -130 -2 -111 0 -201 1 -42 -1 -81 -5 -88 -4 -6 -4 -11 1 -11 4 0 8
-47 8 -105 0 -58 -4 -105 -8 -105 -5 0 -5 -5 -1 -11 10 -16 11 -229 1 -229 -5
0 -5 -5 -1 -12 4 -6 6 -95 5 -197 -1 -102 -2 -193 -1 -201 0 -12 0 -150 0
-235 0 -5 0 -44 1 -86 1 -42 -1 -81 -5 -88 -4 -6 -4 -11 1 -11 4 0 7 -35 6
-77 -3 -122 -3 -143 0 -218 l2 -70 690 -2 c379 -1 692 3 695 7 3 5 5 109 5
232 l0 223 -43 0 c-23 0 -42 3 -42 7 0 4 -8 4 -17 1 -22 -8 -64 -8 -86 0 -9 3
-17 3 -17 -1 0 -9 -115 -6 -129 3 -6 3 -11 3 -11 -2 0 -6 -69 -7 -245 -2 -5 0
-39 -1 -73 -3 -35 -2 -66 0 -68 3 -2 4 -20 3 -39 -1 -20 -4 -38 -4 -41 1 -3 5
-10 7 -15 4 -9 -6 -11 27 -9 150 1 39 1 75 1 80 0 6 0 36 -1 68 -1 32 1 61 5
65 3 4 158 7 343 7 l337 0 1 230 c0 137 -3 233 -9 236 -5 4 -23 3 -38 -1 -16
-5 -29 -5 -29 -1 0 8 -95 5 -110 -4 -5 -3 -10 -3 -10 2 0 4 -108 7 -240 6
-148 -1 -242 2 -246 8 -5 8 -6 66 -3 182 0 6 0 38 -1 70 -1 32 0 61 3 63 3 3
180 5 395 5 301 -1 392 2 399 11 5 7 8 108 8 225 -1 218 -7 249 -42 236 -23
-9 -125 -10 -150 -1 -12 4 -24 4 -27 0 -4 -6 -115 -8 -141 -2 -5 1 -13 1 -17
0 -21 -6 -116 -5 -135 2 -12 4 -24 4 -27 0 -4 -6 -115 -8 -141 -2 -5 1 -12 2
-15 1 -15 -6 -368 -3 -377 2 -5 4 -13 3 -17 0z"/>
<path d="M1846 6831 c-1 -3 -2 -476 -2 -1051 l1 -1045 278 -1 c277 -2 277 -2
278 20 0 11 1 184 1 383 0 328 1 362 16 365 10 2 167 3 350 3 l332 -1 1 26 c0
37 0 402 0 423 -1 16 -25 17 -350 17 l-349 0 0 200 0 200 47 0 c25 1 208 1
407 1 l361 -1 0 234 0 233 -684 0 c-376 0 -685 -2 -687 -6z"/>
<path d="M1533 6032 c-84 -53 -634 -607 -783 -791 -19 -23 -40 -48 -45 -54
-28 -32 -129 -173 -185 -257 -34 -52 -71 -107 -81 -122 -11 -15 -19 -30 -19
-34 0 -4 -6 -15 -14 -23 -31 -37 -193 -357 -251 -496 -42 -102 -100 -291 -111
-360 -1 -11 -7 -44 -13 -74 -20 -98 -26 -184 -26 -346 1 -145 5 -198 20 -275
11 -57 13 -67 25 -110 23 -92 52 -168 107 -280 30 -63 59 -117 62 -120 4 -3
20 -26 36 -52 17 -27 33 -48 38 -48 4 0 7 -5 7 -11 0 -13 75 -102 150 -179 47
-48 80 -76 204 -177 62 -50 242 -158 373 -225 84 -43 153 -75 153 -72 0 2 12
-2 28 -10 25 -12 257 -93 292 -101 8 -2 30 -8 48 -14 18 -5 36 -11 40 -12 4
-1 12 -3 17 -4 23 -7 102 -26 125 -31 14 -3 41 -9 60 -14 34 -9 57 -14 118
-25 86 -17 131 -25 162 -29 19 -3 46 -8 60 -10 24 -4 71 -11 155 -21 266 -35
985 -40 1275 -11 19 2 73 7 119 10 46 4 98 9 116 12 17 2 51 6 76 9 24 2 44 4
44 5 0 1 20 3 44 5 25 3 61 7 80 10 20 3 68 10 106 16 39 5 77 11 85 14 8 2
37 6 64 10 27 3 52 8 55 9 3 2 26 7 51 10 25 4 63 11 84 16 22 5 43 7 47 4 4
-2 11 1 14 7 4 5 13 8 20 5 7 -2 16 -2 19 2 4 3 17 7 29 9 40 6 209 42 317 68
58 14 116 28 130 31 14 3 93 23 175 46 83 22 155 41 160 43 6 1 17 5 25 8 8 3
49 16 90 27 41 12 138 42 215 67 173 55 185 58 185 38 0 -8 10 -36 21 -62 12
-27 25 -57 30 -68 27 -70 94 -239 114 -285 105 -251 120 -283 124 -265 4 23
68 220 81 250 7 17 255 759 264 790 2 6 6 17 9 25 14 37 97 296 97 303 0 4 6
20 14 36 8 15 17 39 19 52 3 14 12 41 20 61 12 28 13 39 4 46 -7 5 -91 49
-187 97 -96 49 -238 120 -315 159 -77 39 -141 74 -143 78 -2 5 -9 8 -16 8 -18
0 -66 24 -66 33 0 4 -5 7 -11 7 -11 0 -339 160 -349 170 -9 9 -353 180 -356
177 -2 -2 45 -122 105 -267 124 -305 123 -302 127 -315 1 -5 14 -37 28 -70 14
-33 22 -63 18 -67 -12 -11 -590 -191 -652 -204 -14 -2 -36 -9 -50 -14 -14 -5
-36 -12 -50 -15 -14 -2 -77 -16 -140 -31 -63 -14 -124 -27 -135 -30 -91 -18
-173 -36 -185 -41 -8 -3 -26 -7 -40 -8 -34 -4 -86 -14 -135 -26 -22 -5 -56
-11 -75 -14 -19 -2 -51 -7 -70 -11 -19 -3 -44 -8 -55 -9 -11 -2 -39 -6 -62 -9
-82 -13 -142 -21 -308 -42 -139 -17 -153 -18 -285 -29 -47 -3 -101 -8 -120
-10 -220 -28 -650 -23 -930 9 -25 3 -65 8 -90 11 -25 2 -67 9 -95 15 -27 5
-63 12 -80 15 -16 2 -55 9 -85 15 -30 6 -66 14 -80 16 -14 3 -52 12 -85 21
-33 8 -64 16 -70 17 -211 47 -514 193 -685 331 -52 41 -176 172 -210 220 -74
108 -153 292 -164 385 -3 19 -5 35 -6 35 -5 0 -10 50 -13 121 -4 95 7 215 28
323 17 87 73 271 86 285 5 6 9 16 9 24 0 21 108 233 183 358 71 120 230 346
292 418 6 6 33 38 60 71 28 33 76 87 107 120 31 33 90 95 130 138 l74 79 -3
241 c-2 133 -5 242 -6 244 -2 1 -8 -1 -14 -5z"/>
<path d="M2147 4463 c-2 -1 -23 -4 -47 -7 -65 -7 -83 -12 -137 -37 -26 -12
-51 -21 -55 -21 -5 1 -8 -2 -8 -8 0 -5 -5 -10 -11 -10 -5 0 -24 -13 -41 -29
l-31 -29 62 -76 c34 -42 64 -76 66 -76 2 0 10 6 17 13 71 65 201 91 260 53 43
-28 57 -90 31 -143 -21 -45 -77 -71 -167 -80 l-65 -6 1 -91 0 -91 41 -2 c132
-5 204 -31 226 -80 29 -62 5 -131 -56 -160 -72 -34 -186 -17 -273 42 -29 19
-55 35 -59 35 -7 -1 -111 -145 -111 -156 0 -4 12 -18 26 -31 88 -81 209 -123
346 -118 117 4 152 11 228 48 85 41 143 110 164 197 12 44 12 55 2 117 -9 56
-68 153 -94 153 -6 0 -12 4 -14 9 -1 6 -23 18 -48 29 l-45 19 32 16 c42 22 74
53 107 104 23 34 29 55 30 109 5 131 -56 224 -181 273 -58 22 -186 45 -196 34z"/>
<path d="M3344 4458 c-162 -17 -284 -120 -350 -294 -13 -35 -21 -64 -18 -64 4
0 2 -6 -3 -12 -13 -19 -17 -67 -17 -203 0 -134 7 -184 35 -260 66 -178 211
-279 387 -270 108 5 170 31 238 101 37 37 78 98 73 106 -2 2 4 14 11 28 7 14
15 62 16 108 3 97 -15 169 -56 226 -29 38 -89 86 -109 86 -6 0 -11 5 -11 12 0
6 -2 9 -5 6 -3 -3 -34 1 -68 7 -51 10 -74 9 -115 -1 -53 -14 -127 -55 -150
-83 -10 -13 -12 -6 -7 41 3 32 10 70 16 85 6 15 10 28 9 28 0 0 4 15 11 33 6
17 15 32 20 32 5 0 9 6 9 13 1 14 33 38 77 56 29 12 91 11 133 -1 24 -7 80
-42 80 -50 0 -11 28 -10 32 1 2 5 21 29 43 53 22 24 49 54 59 66 l20 23 -35
30 c-82 71 -211 109 -325 97z m84 -619 c31 -19 55 -74 50 -115 -2 -19 -1 -34
3 -34 17 0 -25 -92 -53 -115 -33 -28 -93 -34 -131 -13 -33 17 -67 59 -74 91
-3 15 -10 30 -14 33 -5 3 -7 9 -4 14 3 5 1 19 -4 32 -12 31 24 80 77 107 42
22 115 22 150 0z"/>
<path d="M4415 4458 c-123 -16 -221 -92 -276 -213 -15 -34 -30 -73 -33 -86 -3
-13 -7 -35 -10 -48 -27 -122 -23 -320 8 -437 22 -82 72 -177 117 -222 37 -36
112 -81 144 -86 6 -1 15 -4 20 -7 6 -4 46 -5 90 -4 59 2 93 8 130 26 59 27
145 110 164 157 7 17 17 32 22 32 5 0 8 3 7 8 -1 4 5 30 14 58 10 28 21 69 24
90 10 54 12 332 3 363 -47 168 -88 245 -156 298 -73 59 -169 84 -268 71z m96
-209 c27 -11 61 -63 74 -114 26 -106 26 -305 0 -445 -8 -44 -49 -115 -72 -125
-57 -23 -108 -6 -141 47 -31 51 -49 167 -47 313 2 190 17 254 70 307 28 29 69
34 116 17z"/>
</g>
</svg>
