<svg id="Streamshopping" xmlns="http://www.w3.org/2000/svg" xmlns:xlink="http://www.w3.org/1999/xlink" width="123.637" height="123.638" viewBox="0 0 123.637 123.638">
  <defs>
    <clipPath id="clip-path">
      <rect id="Rectangle_503" data-name="Rectangle 503" width="123.637" height="123.637" fill="#d01a00"/>
    </clipPath>
    <clipPath id="clip-path-2">
      <rect id="Rectangle_531" data-name="Rectangle 531" width="67.823" height="61.589" transform="translate(0 0)" fill="none"/>
    </clipPath>
  </defs>
  <g id="Groupe_1310" data-name="Groupe 1310" transform="translate(0 0)" clip-path="url(#clip-path)">
    <path id="Tracé_1072" data-name="Tracé 1072" d="M123.656,61.829A61.829,61.829,0,1,1,61.828,0a61.831,61.831,0,0,1,61.829,61.829" transform="translate(-0.019 -0.01)" fill="#d01a00"/>
    <g id="Groupe_1385" data-name="Groupe 1385" transform="translate(27.896 31.024)">
      <g id="Groupe_1385-2" data-name="Groupe 1385" clip-path="url(#clip-path-2)">
        <path id="Tracé_1170" data-name="Tracé 1170" d="M57.693,0H10.129A10.139,10.139,0,0,0,0,10.126V51.46A10.14,10.14,0,0,0,10.129,61.589H57.693A10.14,10.14,0,0,0,67.823,51.46V10.126A10.139,10.139,0,0,0,57.693,0" fill="#1d1d1d"/>
        <path id="Tracé_1171" data-name="Tracé 1171" d="M55.795,7.757a3,3,0,0,0,2.967-2.576,2.761,2.761,0,0,0,.035-.426c0-.067-.005-.133-.009-.2A3,3,0,0,0,52.8,4.5c-.006.089-.011.172-.011.259,0,.106.005.206.013.307a3.008,3.008,0,0,0,2.989,2.7" fill="#f7f7f7"/>
        <path id="Tracé_1172" data-name="Tracé 1172" d="M48.018,7.757a3,3,0,0,0,2.987-2.7c.01-.1.015-.2.015-.307,0-.087-.005-.17-.013-.259a3,3,0,0,0-5.976,0,2.276,2.276,0,0,0-.015.259c0,.106.005.206.015.307a3,3,0,0,0,2.987,2.7" fill="#f7f7f7"/>
        <path id="Tracé_1173" data-name="Tracé 1173" d="M10.128,9.562H57.692a5.068,5.068,0,0,1,5.066,5.064V51.46a5.068,5.068,0,0,1-5.066,5.063H10.128A5.068,5.068,0,0,1,5.064,51.46V14.626a5.068,5.068,0,0,1,5.064-5.064" fill="#fff"/>
        <path id="Tracé_1174" data-name="Tracé 1174" d="M40.24,7.757a3,3,0,0,0,2.987-2.7c.01-.1.015-.2.015-.307,0-.087-.005-.17-.013-.259a3,3,0,0,0-5.976,0,2.276,2.276,0,0,0-.015.259,2.8,2.8,0,0,0,.016.307,3,3,0,0,0,2.986,2.7" fill="#f7f7f7"/>
        <path id="Tracé_1175" data-name="Tracé 1175" d="M48.14,33.205A13.83,13.83,0,1,1,34.311,19.374,13.829,13.829,0,0,1,48.14,33.205" fill="#1d1d1d"/>
        <path id="Tracé_1176" data-name="Tracé 1176" d="M38.318,37.129a.747.747,0,0,1,.268.05.766.766,0,0,1,.257.173l1.5,1.573a6.191,6.191,0,0,1-2.463,1.938,8.611,8.611,0,0,1-3.5.652,8.344,8.344,0,0,1-3.321-.63,7.188,7.188,0,0,1-2.49-1.742A7.664,7.664,0,0,1,27,36.509a9.72,9.72,0,0,1-.547-3.31,8.726,8.726,0,0,1,.625-3.344,7.8,7.8,0,0,1,1.747-2.629,7.883,7.883,0,0,1,2.685-1.719,9.385,9.385,0,0,1,3.449-.613,8.789,8.789,0,0,1,1.725.161,8.277,8.277,0,0,1,1.512.447,7.023,7.023,0,0,1,1.3.682,6.268,6.268,0,0,1,1.048.875l-1.272,1.708a1.668,1.668,0,0,1-.291.284.754.754,0,0,1-.469.129.841.841,0,0,1-.379-.089,4.078,4.078,0,0,1-.38-.217l-.44-.28a3.523,3.523,0,0,0-.57-.279,4.88,4.88,0,0,0-.77-.218,5.236,5.236,0,0,0-1.033-.088,4.722,4.722,0,0,0-1.876.362A4.1,4.1,0,0,0,31.6,29.409a4.8,4.8,0,0,0-.95,1.636,6.41,6.41,0,0,0-.34,2.154,6.686,6.686,0,0,0,.34,2.221,4.891,4.891,0,0,0,.927,1.636,3.961,3.961,0,0,0,1.368,1.011,4.1,4.1,0,0,0,1.675.346,8.337,8.337,0,0,0,.937-.05,3.867,3.867,0,0,0,.788-.174,3.625,3.625,0,0,0,.691-.317,4.748,4.748,0,0,0,.664-.487,1.375,1.375,0,0,1,.29-.183.755.755,0,0,1,.325-.073" fill="#fff"/>
        <path id="Tracé_1177" data-name="Tracé 1177" d="M33.849,30.392,33.433,31.5a1.51,1.51,0,0,1-.527.712,1.442,1.442,0,0,1-.846.265l-7.209.055.416-1.107a1.573,1.573,0,0,1,.212-.383,1.5,1.5,0,0,1,.321-.32,1.651,1.651,0,0,1,.419-.22,1.376,1.376,0,0,1,.488-.084Z" fill="#fff"/>
        <path id="Tracé_1178" data-name="Tracé 1178" d="M33.553,33.8l-.416,1.106a1.517,1.517,0,0,1-.528.712,1.417,1.417,0,0,1-.845.263l-7.21.057.416-1.107a1.544,1.544,0,0,1,.213-.383,1.494,1.494,0,0,1,.32-.32,1.7,1.7,0,0,1,.418-.221,1.432,1.432,0,0,1,.492-.083Z" fill="#fff"/>
      </g>
    </g>
  </g>
</svg>
