<svg id="Twitter" xmlns="http://www.w3.org/2000/svg" width="32.029" height="32.029" viewBox="0 0 32.029 32.029">
  <path id="Twitter-2" data-name="Twitter" d="M878.877,274.243a5.638,5.638,0,0,1-1.987.77A3.125,3.125,0,0,0,874.62,274a3.167,3.167,0,0,0-3.122,3.2,4.47,4.47,0,0,0,.081.73,8.779,8.779,0,0,1-6.406-3.325,3.111,3.111,0,0,0-.405,1.622,3.377,3.377,0,0,0,1.378,2.676,2.883,2.883,0,0,1-1.419-.405v.041a3.142,3.142,0,0,0,2.514,3.122,2.614,2.614,0,0,1-.811.122,2.492,2.492,0,0,1-.568-.041,3.18,3.18,0,0,0,2.919,2.23,6.12,6.12,0,0,1-3.852,1.379,4.4,4.4,0,0,1-.73-.041,8.732,8.732,0,0,0,4.784,1.419,8.944,8.944,0,0,0,8.879-9.082v-.405a6.03,6.03,0,0,0,1.541-1.662,5.564,5.564,0,0,1-1.784.487A4.471,4.471,0,0,0,878.877,274.243Z" transform="translate(-855.848 -264.391)" fill="#fff"/>
  <path id="Tracé_925" data-name="Tracé 925" d="M859.615,282.329a16.015,16.015,0,1,1,16.015-16.015A16.023,16.023,0,0,1,859.615,282.329Zm0-30.813a14.8,14.8,0,1,0,14.8,14.8A14.829,14.829,0,0,0,859.615,251.516Z" transform="translate(-843.6 -250.3)" fill="#fff"/>
</svg>
