<svg xmlns="http://www.w3.org/2000/svg" xmlns:xlink="http://www.w3.org/1999/xlink" width="245.772" height="245.772" viewBox="0 0 245.772 245.772">
  <defs>
    <clipPath id="clip-path">
      <rect id="Rectangle_507" data-name="Rectangle 507" width="185.07" height="118.792" fill="none"/>
    </clipPath>
  </defs>
  <g id="Visite_Virtuelle_3D" data-name="Visite Virtuelle 3D" transform="translate(-37 -37)">
    <g id="Groupe_1314" data-name="Groupe 1314" transform="translate(37 37)">
      <path id="Tracé_1113" data-name="Tracé 1113" d="M245.986,122.886A122.886,122.886,0,1,1,123.1,0,122.89,122.89,0,0,1,245.986,122.886" transform="translate(-0.214 0)" fill="#d01a00"/>
      <path id="Tracé_1114" data-name="Tracé 1114" d="M105.181,1.476H20.112L1.754,20.4H123.539Z" transform="translate(60.247 57.95)" fill="#adadad"/>
      <path id="Tracé_1115" data-name="Tracé 1115" d="M117.337,81.533V2.182H1.832V81.533Z" transform="translate(63.31 85.663)" fill="#1d1d1d"/>
      <path id="Tracé_1116" data-name="Tracé 1116" d="M133.771,3.671V23.076H18.245V3.671L1.414,42.2H150.6Z" transform="translate(46.886 144.141)" fill="#adadad"/>
      <path id="Tracé_1117" data-name="Tracé 1117" d="M123.539,11.447v-9.5H1.754v9.5Z" transform="translate(60.255 76.404)" fill="#1d1d1d"/>
      <path id="Tracé_1118" data-name="Tracé 1118" d="M1.942,2.343V14.662h16.1l2.9-12.319Z" transform="translate(67.623 91.984)" fill="#cbcbcb"/>
      <path id="Tracé_1119" data-name="Tracé 1119" d="M3.353,3.235V15.554H8.748l2.9-12.319Z" transform="translate(123.044 127.004)" fill="#cbcbcb"/>
      <path id="Tracé_1120" data-name="Tracé 1120" d="M3.353,2.789V15.108h9.622l2.9-12.319Z" transform="translate(123.044 109.496)" fill="#cbcbcb"/>
      <path id="Tracé_1121" data-name="Tracé 1121" d="M3.353,2.343V14.662H17.2L20.1,2.343Z" transform="translate(123.045 91.984)" fill="#cbcbcb"/>
      <path id="Tracé_1122" data-name="Tracé 1122" d="M2.884,14.662H14.8V2.343H5.782Z" transform="translate(104.606 91.984)" fill="#cbcbcb"/>
      <path id="Tracé_1123" data-name="Tracé 1123" d="M4.059,15.554H25.477V3.235H5.75L4.059,10.481Z" transform="translate(150.754 127.004)" fill="#cbcbcb"/>
      <rect id="Rectangle_505" data-name="Rectangle 505" width="21.418" height="12.319" transform="translate(154.817 148.213)" fill="#cbcbcb"/>
      <path id="Tracé_1124" data-name="Tracé 1124" d="M22.532,15.108V2.789H7.032l-2.9,12.319Z" transform="translate(153.691 109.492)" fill="#cbcbcb"/>
      <path id="Tracé_1125" data-name="Tracé 1125" d="M3.353,3.68V16H4.521L7.419,3.68Z" transform="translate(123.044 144.512)" fill="#cbcbcb"/>
      <path id="Tracé_1126" data-name="Tracé 1126" d="M23.005,15.554V3.235H5.573l-2.9,12.319Z" transform="translate(96.388 127.004)" fill="#cbcbcb"/>
      <path id="Tracé_1127" data-name="Tracé 1127" d="M18.922,15.108V2.789H5.677l-2.9,12.319Z" transform="translate(100.472 109.492)" fill="#cbcbcb"/>
      <rect id="Rectangle_506" data-name="Rectangle 506" width="21.418" height="12.319" transform="translate(97.963 148.213)" fill="#cbcbcb"/>
      <path id="Tracé_1128" data-name="Tracé 1128" d="M18.41,14.662V2.343H7.137l-2.9,12.319Z" transform="translate(157.813 91.984)" fill="#cbcbcb"/>
      <path id="Tracé_1129" data-name="Tracé 1129" d="M1.942,2.789V15.108H13.818l2.9-12.319Z" transform="translate(67.623 109.496)" fill="#cbcbcb"/>
      <path id="Tracé_1130" data-name="Tracé 1130" d="M1.942,3.235V15.554H9.591l2.9-12.319Z" transform="translate(67.623 127.004)" fill="#cbcbcb"/>
      <path id="Tracé_1131" data-name="Tracé 1131" d="M1.942,3.68V16H5.364L8.262,3.68Z" transform="translate(67.623 144.512)" fill="#cbcbcb"/>
      <path id="Tracé_1132" data-name="Tracé 1132" d="M15.388,2.789h-8.9l-2.9,12.319h11.8Z" transform="translate(132.421 109.496)" fill="#e5e5e5"/>
      <path id="Tracé_1133" data-name="Tracé 1133" d="M4.059,14.662h7.247L14.2,2.343H4.059Z" transform="translate(150.753 91.984)" fill="#e5e5e5"/>
      <path id="Tracé_1134" data-name="Tracé 1134" d="M11.266,2.343H6.6L3.7,14.662h7.569Z" transform="translate(136.543 91.984)" fill="#e5e5e5"/>
      <path id="Tracé_1135" data-name="Tracé 1135" d="M19.51,3.235H6.386l-2.9,12.319H19.51Z" transform="translate(128.298 127.004)" fill="#e5e5e5"/>
      <path id="Tracé_1136" data-name="Tracé 1136" d="M4.059,15.108H7.078l2.9-12.319H4.059Z" transform="translate(150.753 109.492)" fill="#e5e5e5"/>
      <path id="Tracé_1137" data-name="Tracé 1137" d="M4.059,10.482,5.75,3.235H4.059Z" transform="translate(150.752 127.023)" fill="#e5e5e5"/>
      <path id="Tracé_1138" data-name="Tracé 1138" d="M23.633,3.68H6.281L3.382,16H23.633Z" transform="translate(124.176 144.512)" fill="#e5e5e5"/>
      <path id="Tracé_1139" data-name="Tracé 1139" d="M2.647,15.554H3.734l2.9-12.319H2.647Z" transform="translate(95.331 127.004)" fill="#e5e5e5"/>
      <path id="Tracé_1140" data-name="Tracé 1140" d="M2.647,15.108H7.921l2.9-12.319H2.647Z" transform="translate(95.331 109.492)" fill="#e5e5e5"/>
      <path id="Tracé_1141" data-name="Tracé 1141" d="M20.023,3.68H4.925L2.027,16h18Z" transform="translate(70.953 144.512)" fill="#e5e5e5"/>
      <path id="Tracé_1142" data-name="Tracé 1142" d="M7.656,2.343H5.24l-2.9,12.319H7.656Z" transform="translate(83.32 91.984)" fill="#e5e5e5"/>
      <path id="Tracé_1143" data-name="Tracé 1143" d="M15.9,3.235H5.03l-2.9,12.319H15.9Z" transform="translate(75.075 127.004)" fill="#e5e5e5"/>
      <path id="Tracé_1144" data-name="Tracé 1144" d="M2.647,2.343V14.662h9.5l2.9-12.319Z" transform="translate(95.332 91.984)" fill="#e5e5e5"/>
      <path id="Tracé_1145" data-name="Tracé 1145" d="M11.778,2.789H5.135l-2.9,12.319h9.542Z" transform="translate(79.198 109.496)" fill="#e5e5e5"/>
    </g>
    <g id="Groupe_1319" data-name="Groupe 1319" transform="translate(75.351 105.004)">
      <g id="Groupe_de_masques_1317" data-name="Groupe de masques 1317" clip-path="url(#clip-path)">
        <path id="Tracé_1149" data-name="Tracé 1149" d="M26.749,46.1c-.2.163-2.952,2.715-3.1,2.865-2.395,2.388-4.842,4.691-7.168,7.189A67.786,67.786,0,0,0,3.08,76.168,35.009,35.009,0,0,0,0,90.786a25.387,25.387,0,0,0,3.508,12.7,27.927,27.927,0,0,0,7.315,8.17,42.834,42.834,0,0,0,12.787,6.634,80.642,80.642,0,0,0,24.067,3.933,135.115,135.115,0,0,0,29.039-2.487q6.324-1.192,12.509-2.826c4.8-1.223,11.566-3.473,11.892-3.6,2.635,6.658,4.977,12.233,4.977,12.233l9.024-27L90.067,85.857s2.287,5.4,5.066,12.419c-2.052.812-11.4,3.674-13.7,4.188-4.462,1-8.917,2.025-13.466,2.74-4.769.749-9.594,1.334-14.482,1.654a73.577,73.577,0,0,1-25.031-2.138,31.637,31.637,0,0,1-11.356-5.432A17.506,17.506,0,0,1,10.126,83.27a29.654,29.654,0,0,1,3.505-11.275A62.624,62.624,0,0,1,24.158,57.547c.849-.9,1.772-1.839,2.591-2.7Z" transform="translate(0 -6.75)" fill="#fff"/>
        <path id="Tracé_1150" data-name="Tracé 1150" d="M204.451,22.077c.256.955.538,1.909.765,2.864a28,28,0,0,1,.378,10.806,40.185,40.185,0,0,1-3.852,12.045,70.861,70.861,0,0,1-14.089,19.417c-3.806,3.76-7.727,7.341-11.768,10.69C170,82.481,158.437,91.625,146.517,96.631l-5.892-14.888a117.1,117.1,0,0,0,21.3-12.366c4.236-3.233,9.577-7.775,13.6-11.4a61.838,61.838,0,0,0,13.636-16.966,28.971,28.971,0,0,0,3.344-9.651,18.223,18.223,0,0,0-.481-8.133,17.047,17.047,0,0,0-4.4-7.277,25.723,25.723,0,0,0-7.807-5.336c-3.216-1.486-9.241-3.283-17.4-4.165.034,0-6.04-6.229-6.052-6.233,5.008-.332,19.91.817,26.677,3.227a41.9,41.9,0,0,1,12.474,6.707,27.538,27.538,0,0,1,7.561,9.032c.29.556.588,1.105.883,1.657l.488,1.233" transform="translate(-20.875 -0.058)" fill="#fff"/>
      </g>
    </g>
  </g>
</svg>
